<svg width="63" height="64" viewBox="0 0 63 64" fill="none" xmlns="http://www.w3.org/2000/svg">
<path fill-rule="evenodd" clip-rule="evenodd" d="M32.3025 44.3559C31.4861 43.907 30.4991 43.9149 29.7037 44.39L19.8652 50.165L23.7187 35.1762C26.0156 36.4887 28.6695 37.25 31.4992 37.25C34.329 37.25 36.9828 36.4887 39.2823 35.1762L43.191 50.3802L32.3025 44.3559ZM31.4992 11C37.2899 11 41.9992 15.7092 41.9992 21.5C41.9992 27.2908 37.2899 32 31.4992 32C25.7084 32 20.9992 27.2908 20.9992 21.5C20.9992 15.7092 25.7084 11 31.4992 11ZM49.7928 54.9714L43.7317 31.4015C45.9262 28.6925 47.2492 25.2511 47.2492 21.5C47.2492 12.8139 40.1853 5.75 31.4992 5.75C22.8157 5.75 15.7492 12.8139 15.7492 21.5C15.7492 25.2511 17.0722 28.6925 19.2667 31.4015L13.2082 54.9714C12.9431 56.0004 13.3237 57.0845 14.1716 57.7224C15.0168 58.3602 16.1666 58.418 17.0775 57.8877L31.0687 49.6741L45.9787 57.9219C46.3751 58.1424 46.8135 58.25 47.2492 58.25C47.8188 58.25 48.3858 58.0662 48.8583 57.7014C49.6852 57.0609 50.0553 55.9872 49.7928 54.9714Z" fill="#1081E8"/>
</svg>
