<svg width="24" height="25" viewBox="0 0 24 25" fill="none" xmlns="http://www.w3.org/2000/svg">
<path opacity="0.1" fill-rule="evenodd" clip-rule="evenodd" d="M0 12.9238C0 6.29641 5.37258 0.923828 12 0.923828C18.6274 0.923828 24 6.29641 24 12.9238C24 19.5512 18.6274 24.9238 12 24.9238C5.37258 24.9238 0 19.5512 0 12.9238Z" fill="white"/>
<path fill-rule="evenodd" clip-rule="evenodd" d="M18.4 12.9146C18.4 13.3474 18.3559 13.7796 18.2694 14.2009C18.185 14.6122 18.06 15.016 17.8962 15.402C17.7363 15.7812 17.5378 16.1466 17.3059 16.4874C17.0775 16.826 16.8143 17.1437 16.5252 17.4333C16.2355 17.7216 15.9168 17.984 15.5783 18.2135C15.2364 18.4437 14.8705 18.6419 14.4911 18.8026C14.1045 18.9655 13.6998 19.0903 13.2888 19.1746C12.867 19.2614 12.4332 19.3057 11.9997 19.3057C11.5659 19.3057 11.1322 19.2614 10.7109 19.1746C10.2993 19.0903 9.89462 18.9655 9.50835 18.8026C9.12896 18.6419 8.76267 18.4437 8.42079 18.2135C8.08234 17.9841 7.76357 17.7216 7.47449 17.4333C7.18511 17.1437 6.92196 16.826 6.6932 16.4874C6.46256 16.1466 6.26379 15.7812 6.10317 15.402C5.93939 15.016 5.81409 14.6122 5.72939 14.2009C5.64377 13.7796 5.60001 13.3474 5.60001 12.9146C5.60001 12.4814 5.64374 12.0483 5.72942 11.6279C5.81411 11.2166 5.93941 10.8122 6.10319 10.4268C6.26381 10.0473 6.46259 9.68157 6.69322 9.34078C6.92198 9.00188 7.18514 8.68481 7.47452 8.39489C7.7636 8.10653 8.08236 7.84473 8.42081 7.61568C8.7627 7.38442 9.12898 7.18629 9.50837 7.02525C9.89465 6.862 10.2993 6.73688 10.7109 6.65326C11.1322 6.56714 11.566 6.52344 11.9997 6.52344C12.4332 6.52344 12.867 6.56714 13.2889 6.65326C13.6998 6.73691 14.1045 6.86203 14.4911 7.02525C14.8705 7.18626 15.2365 7.38442 15.5783 7.61568C15.9168 7.84473 16.2356 8.10653 16.5253 8.39489C16.8144 8.68481 17.0775 9.00188 17.3059 9.34078C17.5378 9.68157 17.7363 10.0473 17.8962 10.4268C18.06 10.8122 18.185 11.2166 18.2694 11.6279C18.3559 12.0483 18.4 12.4814 18.4 12.9146ZM9.6677 7.97797C8.14354 8.69668 7.00598 10.0991 6.65127 11.7892C6.79536 11.7905 9.07298 11.8192 11.6972 11.123C10.7512 9.44467 9.74052 8.07505 9.6677 7.97797ZM12.15 11.9634C9.3358 12.8047 6.63534 12.7442 6.53847 12.7404C6.53689 12.7991 6.53408 12.8559 6.53408 12.9146C6.53408 14.3166 7.06379 15.5949 7.93447 16.5614C7.93259 16.5585 9.42831 13.9088 12.3778 12.9564C12.4491 12.9327 12.5216 12.9114 12.5935 12.8908C12.4563 12.5807 12.3066 12.2698 12.15 11.9634ZM15.6093 8.81838C14.647 7.9711 13.3835 7.45716 11.9997 7.45716C11.5556 7.45716 11.1246 7.51084 10.7118 7.61007C10.7937 7.71993 11.8203 9.0799 12.755 10.7937C14.8174 10.0217 15.5958 8.83834 15.6093 8.81838ZM12.966 13.7952C12.9538 13.7992 12.9417 13.8027 12.9298 13.8071C9.70498 14.9297 8.65187 17.192 8.64048 17.2167C9.56836 17.9372 10.7322 18.372 11.9997 18.372C12.7566 18.372 13.4776 18.2181 14.1336 17.9394C14.0526 17.4626 13.7351 15.7912 12.966 13.7952ZM15.0539 17.4408C16.2812 16.6138 17.1528 15.3006 17.3959 13.7796C17.2834 13.7434 15.7543 13.26 13.9901 13.5424C14.707 15.5097 14.9983 17.1119 15.0539 17.4408ZM13.1757 11.607C13.3026 11.8673 13.4254 12.1322 13.5389 12.3984C13.5792 12.4939 13.6186 12.5875 13.657 12.6811C15.5346 12.4452 17.3844 12.8421 17.4635 12.8584C17.451 11.5645 16.9875 10.3771 16.2206 9.4475C16.2103 9.46214 15.3337 10.7269 13.1757 11.607Z" fill="white"/>
</svg>
