<svg width="24" height="25" viewBox="0 0 24 25" fill="none" xmlns="http://www.w3.org/2000/svg">
<path opacity="0.1" fill-rule="evenodd" clip-rule="evenodd" d="M0 12.9238C0 6.29641 5.37258 0.923828 12 0.923828C18.6274 0.923828 24 6.29641 24 12.9238C24 19.5512 18.6274 24.9238 12 24.9238C5.37258 24.9238 0 19.5512 0 12.9238Z" fill="white"/>
<path fill-rule="evenodd" clip-rule="evenodd" d="M12.0006 6.52344C10.2625 6.52344 10.0443 6.53104 9.36165 6.5621C8.68031 6.5933 8.21523 6.70117 7.8083 6.85944C7.38736 7.02291 7.03029 7.24158 6.67455 7.59745C6.31855 7.95319 6.09988 8.31026 5.93588 8.73106C5.77721 9.13813 5.66921 9.60334 5.63854 10.2844C5.60801 10.9671 5.60001 11.1854 5.60001 12.9235C5.60001 14.6617 5.60774 14.8791 5.63867 15.5618C5.67001 16.2431 5.77787 16.7082 5.93601 17.1151C6.09961 17.5361 6.31828 17.8932 6.67415 18.2489C7.02975 18.6049 7.38682 18.8241 7.8075 18.9876C8.2147 19.1458 8.6799 19.2537 9.36111 19.2849C10.0438 19.316 10.2618 19.3236 11.9998 19.3236C13.7381 19.3236 13.9556 19.316 14.6382 19.2849C15.3196 19.2537 15.7852 19.1458 16.1924 18.9876C16.6132 18.8241 16.9697 18.6049 17.3253 18.2489C17.6813 17.8932 17.9 17.5361 18.064 17.1153C18.2213 16.7082 18.3293 16.243 18.3613 15.5619C18.392 14.8793 18.4 14.6617 18.4 12.9235C18.4 11.1854 18.392 10.9672 18.3613 10.2845C18.3293 9.6032 18.2213 9.13813 18.064 8.73119C17.9 8.31026 17.6813 7.95319 17.3253 7.59745C16.9693 7.24145 16.6133 7.02278 16.192 6.85944C15.784 6.70117 15.3186 6.5933 14.6373 6.5621C13.9546 6.53104 13.7373 6.52344 11.9986 6.52344H12.0006ZM11.4264 7.67676C11.5968 7.6765 11.787 7.67676 12.0006 7.67676C13.7094 7.67676 13.9119 7.6829 14.5867 7.71357C15.2107 7.7421 15.5494 7.84637 15.775 7.93397C16.0737 8.04997 16.2866 8.18864 16.5105 8.41264C16.7345 8.63664 16.8732 8.84998 16.9894 9.14865C17.077 9.37398 17.1814 9.71265 17.2098 10.3367C17.2405 11.0113 17.2472 11.214 17.2472 12.922C17.2472 14.63 17.2405 14.8327 17.2098 15.5074C17.1813 16.1314 17.077 16.4701 16.9894 16.6954C16.8734 16.9941 16.7345 17.2067 16.5105 17.4306C16.2865 17.6546 16.0738 17.7933 15.775 17.9093C15.5497 17.9973 15.2107 18.1013 14.5867 18.1298C13.9121 18.1605 13.7094 18.1671 12.0006 18.1671C10.2916 18.1671 10.0891 18.1605 9.41442 18.1298C8.79041 18.101 8.45174 17.9967 8.22601 17.9091C7.92734 17.7931 7.714 17.6545 7.49 17.4305C7.266 17.2065 7.12733 16.9937 7.01106 16.6949C6.92346 16.4695 6.81906 16.1309 6.79066 15.5068C6.75999 14.8322 6.75386 14.6295 6.75386 12.9204C6.75386 11.2113 6.75999 11.0097 6.79066 10.3351C6.81919 9.71105 6.92346 9.37238 7.01106 9.14678C7.12706 8.84811 7.266 8.63477 7.49 8.41077C7.714 8.18677 7.92734 8.0481 8.22601 7.93183C8.45161 7.84383 8.79041 7.73983 9.41442 7.71117C10.0048 7.6845 10.2336 7.6765 11.4264 7.67516V7.67676ZM15.4169 8.73945C14.9929 8.73945 14.6489 9.08305 14.6489 9.50719C14.6489 9.93119 14.9929 10.2752 15.4169 10.2752C15.8409 10.2752 16.1849 9.93119 16.1849 9.50719C16.1849 9.08318 15.8409 8.73945 15.4169 8.73945ZM12.0006 9.63679C10.1855 9.63679 8.71392 11.1084 8.71392 12.9235C8.71392 14.7386 10.1855 16.2095 12.0006 16.2095C13.8157 16.2095 15.2868 14.7386 15.2868 12.9235C15.2868 11.1084 13.8157 9.63679 12.0006 9.63679ZM12.0006 10.7901C13.1787 10.7901 14.1339 11.7452 14.1339 12.9235C14.1339 14.1016 13.1787 15.0568 12.0006 15.0568C10.8223 15.0568 9.86724 14.1016 9.86724 12.9235C9.86724 11.7452 10.8223 10.7901 12.0006 10.7901Z" fill="white"/>
</svg>
