<svg width="63" height="64" viewBox="0 0 63 64" fill="none" xmlns="http://www.w3.org/2000/svg">
<path fill-rule="evenodd" clip-rule="evenodd" d="M46.6209 41.2925L31.5009 49.9734L16.3809 41.2925L20.8277 39.3999L30.1937 44.7759C30.5979 45.0095 31.0494 45.125 31.5009 45.125C31.9524 45.125 32.4013 45.0095 32.8082 44.7759L42.1742 39.3972L46.6209 41.2925ZM30.1937 34.2759C30.5979 34.5095 31.0494 34.625 31.5009 34.625C31.9524 34.625 32.4013 34.5095 32.8082 34.2759L42.1742 28.8972L46.6209 30.7925L31.5009 39.4734L16.3809 30.7925L20.8277 28.8972L30.1937 34.2759ZM31.5009 13.8534L46.6209 20.2925L31.5009 28.9734L16.3809 20.2925L31.5009 13.8534ZM55.1206 30.2885C55.0602 29.2936 54.4434 28.4195 53.5272 28.0284L47.8782 25.6239L53.8081 22.2193C54.6717 21.7258 55.1784 20.7834 55.1206 19.7885C55.0602 18.7963 54.4434 17.9195 53.5272 17.5284L32.5272 8.58502C31.871 8.30414 31.1281 8.30414 30.4719 8.58502L9.47186 17.5284C8.55574 17.9195 7.93886 18.7963 7.88111 19.7885C7.82074 20.7834 8.32999 21.7258 9.19361 22.2193L15.1209 25.6239L9.47186 28.0284C8.55574 28.4195 7.93886 29.2936 7.88111 30.2885C7.82074 31.2834 8.32999 32.2258 9.19361 32.7193L15.1209 36.1239L9.47186 38.5284C8.55574 38.9195 7.93886 39.7936 7.88111 40.7885C7.82074 41.7834 8.32999 42.7258 9.19361 43.2193L30.1936 55.2759C30.5979 55.5095 31.0494 55.625 31.5009 55.625C31.9524 55.625 32.4012 55.5095 32.8081 55.2759L53.8081 43.2193C54.6717 42.7258 55.1784 41.7834 55.1206 40.7885C55.0602 39.7963 54.4434 38.9195 53.5299 38.5284L47.8809 36.1213L53.8081 32.7193C54.6717 32.2258 55.1784 31.2834 55.1206 30.2885Z" fill="#1081E8"/>
</svg>
