<svg width="63" height="64" viewBox="0 0 63 64" fill="none" xmlns="http://www.w3.org/2000/svg">
<path fill-rule="evenodd" clip-rule="evenodd" d="M49.875 47.75C49.875 49.1964 48.699 50.375 47.25 50.375H42V42.5C42 41.051 40.8266 39.875 39.375 39.875H23.625C22.1734 39.875 21 41.051 21 42.5V50.375H15.75C14.301 50.375 13.125 49.1964 13.125 47.75V16.25C13.125 14.8036 14.301 13.625 15.75 13.625H21V26.75C21 28.199 22.1734 29.375 23.625 29.375H34.125C35.5766 29.375 36.75 28.199 36.75 26.75C36.75 25.301 35.5766 24.125 34.125 24.125H26.25V13.625H34.5765C35.2669 13.625 35.9415 13.9059 36.4324 14.3941L49.1059 27.0676C49.602 27.5637 49.875 28.2253 49.875 28.9261V47.75ZM26.25 50.375H36.75V45.125H26.25V50.375ZM52.8176 23.3559L40.1441 10.6824C38.6584 9.194 36.6791 8.375 34.5765 8.375H15.75C11.4082 8.375 7.875 11.9082 7.875 16.25V47.75C7.875 52.0918 11.4082 55.625 15.75 55.625H23.625H39.375H47.25C51.5918 55.625 55.125 52.0918 55.125 47.75V28.9261C55.125 26.8209 54.3034 24.8416 52.8176 23.3559V23.3559Z" fill="#1081E8"/>
</svg>
