<svg width="24" height="25" viewBox="0 0 24 25" fill="none" xmlns="http://www.w3.org/2000/svg">
<path opacity="0.1" fill-rule="evenodd" clip-rule="evenodd" d="M0 12.9238C0 6.29641 5.37258 0.923828 12 0.923828C18.6274 0.923828 24 6.29641 24 12.9238C24 19.5512 18.6274 24.9238 12 24.9238C5.37258 24.9238 0 19.5512 0 12.9238Z" fill="white"/>
<path fill-rule="evenodd" clip-rule="evenodd" d="M11.6406 10.6778L11.6658 11.093L11.2461 11.0422C9.71843 10.8473 8.38383 10.1863 7.25067 9.07618L6.69668 8.52537L6.55399 8.93213C6.25181 9.83885 6.44487 10.7964 7.0744 11.4404C7.41015 11.7963 7.33461 11.8472 6.75544 11.6353C6.55399 11.5675 6.37772 11.5167 6.36093 11.5421C6.30218 11.6014 6.50363 12.3726 6.66311 12.6776C6.88134 13.1013 7.32621 13.5166 7.81305 13.7623L8.22434 13.9572L7.73751 13.9657C7.26746 13.9657 7.25067 13.9742 7.30103 14.1521C7.46891 14.7029 8.13201 15.2876 8.87066 15.5419L9.39108 15.7198L8.93781 15.991C8.26631 16.3808 7.4773 16.6011 6.68829 16.6181C6.31057 16.6265 6 16.6604 6 16.6859C6 16.7706 7.02404 17.2451 7.61999 17.4316C9.40786 17.9824 11.5315 17.7451 13.1263 16.8045C14.2595 16.135 15.3926 14.8046 15.9214 13.5166C16.2068 12.8302 16.4922 11.576 16.4922 10.9744C16.4922 10.5846 16.5174 10.5337 16.9874 10.0676C17.2644 9.79648 17.5246 9.49988 17.575 9.41514C17.6589 9.25414 17.6505 9.25414 17.2224 9.3982C16.509 9.65242 16.4083 9.61852 16.7608 9.23719C17.021 8.96602 17.3316 8.47453 17.3316 8.33047C17.3316 8.30505 17.2057 8.34742 17.063 8.42368C16.9119 8.50842 16.5761 8.63553 16.3243 8.7118L15.8711 8.85586L15.4598 8.57622C15.2331 8.42368 14.9142 8.2542 14.7463 8.20336C14.3182 8.08472 13.6635 8.10167 13.2774 8.23726C12.2282 8.61859 11.5651 9.60157 11.6406 10.6778Z" fill="white"/>
</svg>
