<svg width="24" height="25" viewBox="0 0 24 25" fill="none" xmlns="http://www.w3.org/2000/svg">
<path opacity="0.1" fill-rule="evenodd" clip-rule="evenodd" d="M0 12.9238C0 6.29641 5.37258 0.923828 12 0.923828C18.6274 0.923828 24 6.29641 24 12.9238C24 19.5512 18.6274 24.9238 12 24.9238C5.37258 24.9238 0 19.5512 0 12.9238Z" fill="white"/>
<path fill-rule="evenodd" clip-rule="evenodd" d="M17.0008 8.7981C17.5516 8.94923 17.9853 9.39454 18.1325 9.96005C18.4 10.985 18.4 13.1234 18.4 13.1234C18.4 13.1234 18.4 15.2618 18.1325 16.2868C17.9853 16.8523 17.5516 17.2976 17.0008 17.4488C16.0027 17.7234 12 17.7234 12 17.7234C12 17.7234 7.99732 17.7234 6.99913 17.4488C6.44837 17.2976 6.01462 16.8523 5.86742 16.2868C5.60001 15.2618 5.60001 13.1234 5.60001 13.1234C5.60001 13.1234 5.60001 10.985 5.86742 9.96005C6.01462 9.39454 6.44837 8.94923 6.99913 8.7981C7.99732 8.52344 12 8.52344 12 8.52344C12 8.52344 16.0027 8.52344 17.0008 8.7981ZM10.8 11.3234V15.3234L14 13.3235L10.8 11.3234Z" fill="white"/>
</svg>
