<svg width="355" height="354" viewBox="0 0 355 354" fill="none" xmlns="http://www.w3.org/2000/svg">
<path d="M11.8549 126.321L11.8586 126.309L11.8623 126.298C17.052 110.319 28.8437 87.1215 38.1945 74.6074C66.7164 36.3962 110.642 11.1516 157.881 5.95901C172.965 4.19275 177.923 4.19217 192.735 5.68689L192.749 5.68832C217.506 8.27292 242.865 16.1571 262.483 27.6788C262.486 27.6806 262.489 27.6825 262.493 27.6844L271.673 33.0061L273.655 34.1553L273.667 36.4465L273.933 89.3799V89.3817C273.966 96.4476 273.998 103.913 274.031 111.377C274.131 134.631 274.232 157.87 274.333 168.964L274.333 168.982V169V195.667V199.667H270.333H252.333H234.333H230.372L230.334 195.706L229.667 127.039L229.024 60.8763L226.23 59.5526C226.228 59.5517 226.226 59.5508 226.224 59.5499C222.078 57.599 218.583 56.4869 201.29 51.795C200.042 51.4598 196.874 51.124 192.254 50.8995C187.796 50.6828 182.388 50.5835 176.962 50.6C171.536 50.6165 166.136 50.7488 161.694 50.99C157.083 51.2403 153.94 51.5907 152.726 51.924L152.719 51.9258C151.226 52.3329 149.272 52.8383 147.354 53.3343L147.335 53.3393C145.392 53.8417 143.488 54.3342 142.052 54.7257L142.015 54.7361L141.976 54.7457C104.697 64.1297 68.0156 99.2173 56.2855 136.857L56.2833 136.864L56.281 136.871C54.6726 141.964 52.6581 148.009 51.8386 150.331L51.8112 150.409L51.8083 150.416C51.8099 150.413 51.811 150.411 51.8115 150.411C51.8176 150.413 51.7453 150.691 51.646 151.454C51.5352 152.307 51.4213 153.497 51.3082 155.051C51.0825 158.151 50.8721 162.529 50.6811 168.218C50.2994 179.586 49.9997 196.048 49.7998 217.704L49.7997 217.716L48.9997 282.383L48.8495 294.526L41.7538 284.671L36.9623 278.016C36.9609 278.014 36.9595 278.012 36.9581 278.01C16.7344 250.131 4.33331 212.113 4.33331 177.667C4.33331 163.302 7.98349 138.488 11.8549 126.321Z" fill="url(#paint0_linear_101_3)" stroke="url(#paint1_linear_101_3)" stroke-width="8"/>
<path d="M297.876 217.59L297.878 217.583L297.881 217.575C303.492 201.124 304.333 191.303 304.333 130.6C304.333 114.921 304.433 100.661 304.617 90.3123C304.709 85.1435 304.822 80.9204 304.956 77.9748C305.023 76.5133 305.097 75.306 305.182 74.437C305.223 74.0237 305.277 73.5687 305.358 73.1673C305.392 72.9984 305.472 72.6268 305.639 72.22C305.715 72.0355 305.907 71.5949 306.288 71.1345C306.633 70.7178 307.662 69.6667 309.4 69.6667C310.502 69.6667 311.298 70.1076 311.557 70.2575C311.912 70.4624 312.192 70.6859 312.373 70.8405C312.743 71.1564 313.089 71.5216 313.376 71.8449C313.97 72.5132 314.667 73.401 315.406 74.3952C316.901 76.4059 318.773 79.1319 320.712 82.091C324.564 87.9683 328.867 95.0564 331.114 99.6164C340.42 118.097 345.589 136.28 348.832 161.41C349.766 168.279 350.266 172.836 350.283 177.317C350.301 181.814 349.834 186.113 348.965 192.464C346.409 212.098 344.761 219.837 339.854 234.286C331.776 258.242 318.095 279.698 299.551 298.106L299.546 298.111L299.54 298.117C290.776 306.747 284.478 312.51 277.876 317.385C271.256 322.271 264.438 326.185 254.704 331.22L254.701 331.221C229.247 344.359 203.775 349.812 172.912 349.132L172.9 349.132C140.241 348.316 118.125 342.136 90.0785 326.071L90.0766 326.07L81.01 320.87L79 319.717V317.4V238.2V159V155H83H101.667H120.333H124.318L124.333 158.985L124.6 227.91L124.6 227.918L124.984 294.027L134.46 297.36L134.461 297.36C141.364 299.789 152.424 302.4 161.289 303.705C168.274 304.636 172.306 305.068 176.232 305.083C180.159 305.099 184.091 304.699 190.887 303.833C198.798 302.795 211.082 300.047 217.757 297.865L217.759 297.864C254.128 285.999 285.336 254.823 297.876 217.59Z" fill="url(#paint2_linear_101_3)" stroke="url(#paint3_linear_101_3)" stroke-width="8"/>
<path d="M159 275H155V271V177.667V84.3333V80.3333H159H177H195H199V84.3333V177.667V271V275H195H177H159Z" fill="url(#paint4_linear_101_3)" stroke="url(#paint5_linear_101_3)" stroke-width="8"/>
<defs>
<linearGradient id="paint0_linear_101_3" x1="79.399" y1="278.927" x2="232.637" y2="20.9073" gradientUnits="userSpaceOnUse">
<stop stop-color="#37A402"/>
<stop offset="0.510417" stop-color="#246C01"/>
<stop offset="1" stop-color="#36A202"/>
</linearGradient>
<linearGradient id="paint1_linear_101_3" x1="79.399" y1="278.927" x2="232.637" y2="20.9073" gradientUnits="userSpaceOnUse">
<stop stop-color="#37A402"/>
<stop offset="0.510417" stop-color="#246C01"/>
<stop offset="1" stop-color="#36A202"/>
</linearGradient>
<linearGradient id="paint2_linear_101_3" x1="154.414" y1="341.81" x2="305.46" y2="84.1514" gradientUnits="userSpaceOnUse">
<stop stop-color="#37A402"/>
<stop offset="0.510417" stop-color="#246C01"/>
<stop offset="1" stop-color="#36A202"/>
</linearGradient>
<linearGradient id="paint3_linear_101_3" x1="154.414" y1="341.81" x2="305.46" y2="84.1514" gradientUnits="userSpaceOnUse">
<stop stop-color="#37A402"/>
<stop offset="0.510417" stop-color="#246C01"/>
<stop offset="1" stop-color="#36A202"/>
</linearGradient>
<linearGradient id="paint4_linear_101_3" x1="168.765" y1="268.677" x2="241.18" y2="244.108" gradientUnits="userSpaceOnUse">
<stop stop-color="#37A402"/>
<stop offset="0.510417" stop-color="#246C01"/>
<stop offset="1" stop-color="#36A202"/>
</linearGradient>
<linearGradient id="paint5_linear_101_3" x1="168.765" y1="268.677" x2="241.18" y2="244.108" gradientUnits="userSpaceOnUse">
<stop stop-color="#37A402"/>
<stop offset="0.510417" stop-color="#246C01"/>
<stop offset="1" stop-color="#36A202"/>
</linearGradient>
</defs>
</svg>
