<?xml version="1.0" encoding="UTF-8"?>
<!DOCTYPE svg PUBLIC "-//W3C//DTD SVG 1.1//EN" "http://www.w3.org/Graphics/SVG/1.1/DTD/svg11.dtd">
<!-- Creator: CorelDRAW 2020 (64-Bit) -->
<svg xmlns="http://www.w3.org/2000/svg" xml:space="preserve" width="10in" height="10in" version="1.1" style="shape-rendering:geometricPrecision; text-rendering:geometricPrecision; image-rendering:optimizeQuality; fill-rule:evenodd; clip-rule:evenodd"
viewBox="0 0 10000 10000"
 xmlns:xlink="http://www.w3.org/1999/xlink"
 xmlns:xodm="http://www.corel.com/coreldraw/odm/2003">
 <defs>
  <style type="text/css">
   <![CDATA[
    .fil0 {fill:#1081E8}
    .fil1 {fill:#54A7F2}
   ]]>
  </style>
 </defs>
 <g id="Layer_x0020_1">
  <metadata id="CorelCorpID_0Corel-Layer"/>
  <g id="_2205833985472">
   <path class="fil0" d="M4971.57 563.43l0 1504.07c14.68,-9.83 16.92,-12.19 34.81,-23.41 101.81,-63.9 97.52,-32.8 314.02,91.83 114.02,65.64 227.47,130.69 343.19,200.22 59.37,35.67 115.96,65.65 172.17,99.54l688.9 397.9c58.45,33.65 113.86,63.86 172.4,99.31l861.03 497.48c70.37,45.54 159.71,79 162.29,122.89l-2.67 4239.4c-0.04,165.65 26.51,174.82 -18.94,184.17l-2707.79 0.2 0 -1261.47 718.07 0c245.83,0 491.65,0 737.48,0l27.04 -31.2c2.07,-767.54 -1.29,-1537.9 2.11,-2307.42 0.57,-128.72 3.24,-118.52 -52.71,-151.06 -22.76,-13.24 -22.26,-15.96 -47.58,-30.05l-1287.37 -750.41c-28.17,6.56 -38.94,16.31 -58.95,28.39l-57.5 39.53 0 5763.98 3981.48 0c111.16,-4.75 74.61,-48.21 74.66,-213.48l0 -6287.98c-37.91,-25.38 -77.9,-48.47 -120.54,-73.53l-424.66 -244.89c-8.2,-4.69 -11.13,-5.77 -18.9,-10.22l-632.75 -366.72c-15.22,-8.35 -16.32,-8.74 -31.5,-17.02l-251.88 -145.97c-16.85,-9.83 -20.26,-10.68 -37.31,-20.91l-510.52 -294.88c-84.78,-45.78 -165.96,-98.98 -251.74,-146.11 -19.88,-10.93 -40.19,-20.94 -62.58,-34.46l-379.87 -221.75c-1.81,-1.11 -4.31,-2.46 -6.14,-3.56l-1033.85 -596.37c-27.19,-18.13 -4.74,-4.94 -37.36,-20.87 -133.88,-65.39 -110.43,-106.45 -190.5,-56.17l-66.02 41z"/>
   <path class="fil1" d="M4971.57 2067.5l0 -1504.07 -279.67 156.99c-16.34,9.36 -2.39,1.44 -18.11,11 -23.15,14.08 -5.4,4.59 -31.07,17.44 -14.09,7.05 -16.47,7.28 -31.63,16.89 -1.75,1.11 -3.99,2.84 -5.72,3.97l-682.93 394.19c-27.15,13.57 -4.54,0.27 -30.74,17.78l-1294.67 743.1c-13.49,8.62 -11.12,8.5 -28.86,19.66l-1439.26 831.4 0.2 6356.17c0.01,80.4 -30.27,131.31 49.92,143.69l1056.1 1.6 122.91 0c99.07,-3.78 71.17,-33.57 71.17,-223.19l0 -5521.39 982.91 -569.68c16.97,-10.15 2.26,-2.06 18.62,-10.49 172.7,-88.98 400.08,-237.11 578.8,-333.35 14.84,-7.99 22.81,-11.3 37.99,-20.22 18.03,-10.61 27.22,-16.59 42.7,-25.23l78.89 -47.26c31.43,-17.46 47.72,-27.22 81.19,-44.96l516.95 -298.17c11.67,-6.37 29.36,-15.24 43.93,-24 37.05,-22.26 125.19,-82.51 160.39,-91.91z"/>
   <path class="fil1" d="M4971.57 9277.32l0 -5763.98c-32.94,7.68 -52.98,24.72 -83.1,43.05 -29.66,18.04 -51.41,28.97 -80,46.15 -57.19,34.39 -107.96,62.97 -164.89,97.11 -57.07,34.22 -109.76,63.17 -166.41,95.59 -54.08,30.94 -109.3,66.13 -165.45,96.55l-247.93 140.21c-23.28,15.07 -15.08,11.77 -41.5,26.42l-290.13 165.94c-38.26,22.25 -49.37,27.72 -51.72,84.13 -13.87,332.98 0.55,701.78 0.55,1038.84l0 3648.58c0,246.56 -37.78,278.17 109.77,281.41l132.83 0 16.37 0 16.37 0 16.37 0 16.38 0 16.37 0 16.37 0 16.37 0 16.37 0 16.37 0 16.37 0 16.37 0 16.38 0 16.37 0 16.37 0 16.37 0 16.37 0 16.37 0 16.37 0 16.37 0 16.38 0 16.37 0 16.37 0 16.37 0 16.37 0 16.37 0 16.37 0 16.37 0 16.38 0 16.37 0 16.37 0 16.37 0 16.37 0 16.37 0 16.37 0 16.37 0 16.38 0 16.37 0 16.37 0 16.37 0 16.37 0 16.37 0 16.37 0 16.37 0 16.38 0 16.37 0 16.37 0 16.37 0 16.37 0 16.37 0 16.37 0 16.37 0 16.38 0 16.37 0 16.37 0 16.37 0 16.37 0 16.37 0 16.37 0 16.37 0 16.38 0 16.37 0 16.37 0 16.37 0 16.37 0z"/>
  </g>
 </g>
</svg>
