<svg version="1.2" xmlns="http://www.w3.org/2000/svg" viewBox="0 0 2907 2358" width="2907" height="2358"><defs><clipPath clipPathUnits="userSpaceOnUse" id="cp1"><path d="m371.91 2198.17l134.56-474.38 208.95-539.4 217.59-8.08 269.9 108.39 117.3 143.31 142.23-55.25 103.81 102.65-26.78 324.7c0 0 175 214.86 177.39 223.17 2.38 8.31-13.97 174.89-13.97 174.89z"/></clipPath></defs><style>.a{fill:#ecf2fa}.b{fill:#dffcea}.c{fill:#0d6d32}.d{fill:#101c3a}.e{fill:#0c5a2a}.f{fill:#c7ffdc}.g{fill:#425fec}.h{fill:#fc721a}.i{fill:#fb721a}.j{fill:#103d21}.k{fill:#ff9753}.l{fill:#0a5e2a}.m{fill:#131313}.n{fill:#37a660}.o{fill:#cfe0fa}.p{fill:#fff}.q{fill:#f8a3a2}.r{fill:#e6e6e6}.s{fill:#fb7f2f}.t{fill:#b2f7cc}.u{fill:#0ab249}.v{fill:#36a15e}</style><path class="a" d="m1829.4 604.6c-219.2 171.1-521.3 47.1-621.8-72.6-296.7-353.7 841-98.5 621.8 72.6z"/><path class="b" d="m2169.6 1688.1c-143.8 246.4-427.1 457.1-740.5 510.9-50.6 8.7-102 13.3-153.7 13.3-12.3 0-24.5-0.2-36.8-0.8-208.5-8.8-420.5-94-606.1-288.7-286.7-300.6-371.9-594.6-319.4-847.6 15.2-73.6 42.1-143.7 79.1-209.6 324.7-577.8 661.5-147.2 1115.6-83.8 313.2 43.7 703.5 98.5 779.4 382.1 36.4 135.5 8.8 307.4-117.6 524.2z"/><path class="c" d="m1870.2 2197.6h-161.4l-58.5-304.7c-9.4-48.9 28.1-94.2 77.8-94.2 38 0 70.6 27 77.8 64.3z"/><path fill-rule="evenodd" class="d" d="m1873 2200h-166.1l-0.4-1.9-58.5-304.8c-4.6-23.9 1.7-48.5 17.2-67.3 15.6-18.8 38.5-29.6 62.9-29.6 39.1 0 72.8 27.8 80.1 66.2zm-162.2-4.8h156.5l-63.7-331.8c-6.9-36.1-38.7-62.3-75.5-62.3-23 0-44.6 10.1-59.2 27.9-14.7 17.7-20.6 40.8-16.2 63.4z"/><path class="d" d="m1660.7 1890.9c-3.8-20.2 1.4-40.8 14.5-56.7 13.1-15.8 32.4-24.9 52.9-24.9 32.9 0 61.2 23.4 67.4 55.7l27.4 142.6-6.5 1.2-27.4-142.6c-5.6-29.1-31.2-50.3-60.9-50.3-18.6 0-36 8.2-47.8 22.5-11.8 14.3-16.6 33-13.1 51.2l45.8 238.7-6.5 1.2z"/><path class="e" d="m1408.3 2170.4h427.2v27.2h-427.2z"/><path fill-rule="evenodd" class="d" d="m1837.9 2200h-432v-31.9h432zm-427.3-4.8h422.6v-22.4h-422.6z"/><path class="d" d="m1408.3 2167.1h350.4v6.6h-350.4z"/><path class="c" d="m2247.3 1478.3l-20.3 232.7-23.7 272.3-4.5 51.4c-2.1 24.4-22.3 42.9-47 42.9h-921c-27.6 0-49.7-23.1-48.8-50.3q0-1.3 0.1-2.7l0.3-3.5 1.1-12.6 0.6-6.2 3.8-44.1 17.5-201.5 25.2-288.4c0.9-10.9 5.5-20.6 12.4-28.1 8.6-9.2 21-15 34.6-15h921q4.2 0.1 8.2 0.7c24.5 4.2 42.7 26.8 40.5 52.4z"/><path fill-rule="evenodd" class="d" d="m2151.8 2080h-921c-13.9 0-27-5.6-36.8-15.7-9.7-10.1-14.8-23.2-14.4-37.1 0-0.9 0.1-1.9 0.2-2.8l23.3-267.9 25.1-288.4c1-11.2 5.5-21.3 13.1-29.5 9.3-10 22.5-15.7 36.3-15.7h921c2.8 0 5.6 0.2 8.5 0.7 26.1 4.4 44.8 28.5 42.6 54.9l-48.5 556.4c-2.2 25.7-23.4 45.1-49.4 45.1zm-874.2-652.4c-12.5 0-24.5 5.2-32.9 14.2-6.8 7.4-10.9 16.6-11.7 26.7l-48.5 556.3c-0.1 0.9-0.2 1.7-0.2 2.5-0.4 12.6 4.3 24.6 13.1 33.7 8.9 9.2 20.7 14.3 33.4 14.3h921c23.5 0 42.7-17.6 44.7-40.8l48.4-556.4c2.1-23.9-14.8-45.8-38.5-49.8-2.7-0.5-5.2-0.7-7.8-0.7z"/><path class="f" d="m1206.1 2009.4l47-538.8c1.1-13 11.8-22.8 24.9-22.8h921c7.3 0 14.1 3 19.1 8.4 5 5.5 7.4 12.4 6.7 19.7l-46.5 533.5z"/><path class="d" d="m1207.7 2050c-6-6.5-8.9-14.8-8.1-23.5l48.5-556.4c1.3-15.6 14.1-27.3 29.8-27.3l0.1 6.6c-12.3 0-22.3 9.2-23.4 21.4l-48.5 556.4c-0.5 6.8 1.7 13.3 6.4 18.4 4.7 5.1 11 7.9 17.9 7.9h921q1.3 0 2.4-0.1l0.8 6.6q-1.5 0.1-3 0.1h-921.1c-8.8 0-16.9-3.6-22.8-10.1z"/><path class="d" d="m1283.3 1813.1l0.9-13.9h107.8l-0.9 13.9z"/><path class="d" d="m1285.5 1771.1l1-13.9h185.6l-0.9 13.9z"/><path class="g" d="m1287.3 1729.1l0.9-13.9h156.4l-0.9 13.9z"/><path class="d" d="m1398.3 1813.1l0.9-13.9h21.2l-0.9 13.9z"/><path class="d" d="m1485.3 1813.1l0.9-13.9h107.8l-0.9 13.9z"/><path class="d" d="m1487.5 1771.1l1-13.9h185.6l-0.9 13.9z"/><path class="d" d="m1489.2 1729.1l1-13.9h156.4l-0.9 13.9z"/><path class="d" d="m1600.3 1813.1l0.9-13.9h21.2l-0.9 13.9z"/><path class="d" d="m1293.2 1688.7l0.9-14h107.8l-0.9 14z"/><path class="d" d="m1295.4 1646.7l1-14h185.6l-0.9 14z"/><path class="d" d="m1297.1 1604.7l1-14h156.4l-0.9 14z"/><path class="d" d="m1408.2 1688.7l0.9-14h21.2l-0.9 14z"/><path class="h" d="m1495.2 1688.7l0.9-14h107.8l-0.9 14z"/><path class="d" d="m1497.4 1646.7l0.9-14h185.7l-0.9 14z"/><path class="d" d="m1499.1 1604.7l1-14h156.4l-0.9 14z"/><path class="d" d="m1610.2 1688.7l0.9-14h21.2l-0.9 14z"/><path class="d" d="m1303.1 1564.2l0.9-13.9h107.8l-0.9 13.9z"/><path class="d" d="m1305.3 1522.2l0.9-13.9h185.7l-0.9 13.9z"/><path class="d" d="m1418.1 1564.2l0.9-13.9h21.2l-0.9 13.9z"/><path class="i" d="m1505.1 1564.2l0.9-13.9h107.8l-0.9 13.9z"/><path class="d" d="m1507.3 1522.2l0.9-13.9h185.7l-0.9 13.9z"/><path class="g" d="m1620.1 1564.2l0.9-13.9h21.2l-0.9 13.9z"/><path class="d" d="m1729.8 1813.1l0.9-13.9h107.8l-1 13.9z"/><path class="d" d="m1732 1771.1l0.9-13.9h185.6l-0.9 13.9z"/><path class="d" d="m1733.7 1729.1l0.9-13.9h156.5l-1 13.9z"/><path class="d" d="m1844.7 1813.1l1-13.9h21.2l-1 13.9z"/><path class="d" d="m1931.8 1813.1l0.9-13.9h107.8l-1 13.9z"/><path class="d" d="m1934 1771.1l0.9-13.9h185.6l-0.9 13.9z"/><path class="d" d="m1935.7 1729.1l0.9-13.9h156.5l-1 13.9z"/><path class="d" d="m2046.7 1813.1l1-13.9h21.2l-1 13.9z"/><path class="d" d="m1739.6 1688.7l1-14h107.8l-1 14z"/><path class="d" d="m1741.9 1646.7l0.9-14h185.6l-0.9 14z"/><path class="d" d="m1743.6 1604.7l0.9-14h156.5l-1 14z"/><path class="d" d="m1854.6 1688.7l1-14h21.2l-1 14z"/><path class="d" d="m1941.6 1688.7l1-14h107.8l-1 14z"/><path class="h" d="m1943.9 1646.7l0.9-14h185.6l-0.9 14z"/><path class="d" d="m1945.6 1604.7l0.9-14h156.5l-1 14z"/><path class="d" d="m2056.6 1688.7l0.9-14h21.3l-1 14z"/><path class="d" d="m1749.5 1564.2l1-13.9h107.8l-1 13.9z"/><path class="d" d="m1751.8 1522.2l0.9-13.9h185.6l-0.9 13.9z"/><path class="d" d="m1864.5 1564.2l0.9-13.9h21.2l-0.9 13.9z"/><path class="d" d="m1951.5 1564.2l1-13.9h107.8l-1 13.9z"/><path class="d" d="m1953.8 1522.2l0.9-13.9h185.6l-0.9 13.9z"/><path class="d" d="m2066.5 1564.2l0.9-13.9h21.2l-0.9 13.9z"/><path class="d" d="m1711.9 1978.7l0.9-13.9h156.4l-0.9 13.9z"/><path class="d" d="m1913.8 1978.7l1-13.9h156.4l-0.9 13.9z"/><path class="d" d="m1717.8 1938.3l0.9-14h107.8l-0.9 14z"/><path class="j" d="m1720 1896.3l1-14h185.6l-0.9 14z"/><path class="k" d="m1721.7 1854.3l1-14h156.4l-0.9 14z"/><path class="d" d="m1832.8 1938.3l0.9-14h21.2l-0.9 14z"/><path class="d" d="m1919.8 1938.3l0.9-14h107.8l-0.9 14z"/><path class="h" d="m1922 1896.3l1-14h185.6l-0.9 14z"/><path class="d" d="m1923.7 1854.3l1-14h156.4l-0.9 14z"/><path class="d" d="m2034.8 1938.3l0.9-14h21.2l-0.9 14z"/><path class="l" d="m1980.4 274.3c4.6 4.5 8.4 9.9 11 16.1 2 4.8 3 9.4 3.5 13.8l0.2 3.3q0 0 0 0l-53.4 5.7z"/><path class="m" d="m2392 2212.3h-2020.1v-14.1h2020.1z"/><path class="l" d="m2313.3 876.9c-3.9 111.4-92 199.8-200.9 206.6l-0.1 1.1-1219.7-43.4c-133-4.7-237.1-116.4-232.3-249.5 4.7-133 116.4-237 249.4-232.3 39.5 1.4 76.3 12.4 108.5 30.4q-1.1-17.1-0.5-34.6c6.7-187 163.7-333.2 350.7-326.6 138.7 5 255 92.8 303 214.1 42.3-35 96.9-55.5 156-53.3 128.1 4.5 228.1 112 223.6 240-0.4 10.8-1.8 21.3-3.6 31.6 18.9-4.6 38.6-6.9 59-6.2 118.5 4.2 211.1 103.7 206.9 222.1z"/><path class="n" d="m2234.9 864.2c0 111.4-84.9 203-193.5 213.6v1.1h-1220.5c-133.1 0-241-107.9-241-241.1 0-133.1 107.9-241 241-241q2.2 0 4.3 0c37.9 0.7 73.5 10.3 105.2 26.5-1.1-11.4-1.7-22.9-1.7-34.6q0-14.2 1.1-28.2c14.4-173.9 160.1-310.6 337.7-310.6q10.7 0 21.3 0.7c129.7 8.1 239.5 89.1 289.2 202.5 33.9-30.3 76.7-50.8 124-56.9q14.8-2 30-2c21.7 0 42.7 3 62.6 8.6 97.7 27.3 169.3 116.9 169.3 223.3 0 10.8-1 21.4-2.4 31.8 18.7-5.3 38.3-8.3 58.7-8.3 118.6 0 214.7 96.1 214.7 214.6z"/><path class="h" d="m1618.5 522.7l2.5-0.4 34.2 204.2-190.1-70.8c0-0.1 3-10.3 3-10.3 24-62.2 79.6-110.7 150.4-122.7z"/><path class="l" d="m1733.5 1016.9c-85.2 4-166-50-193.1-131.9l-4.8-12.2 22.8-7.7 11.1-3.8 1.4-0.4 4.1-1.4 145.9-49-1.9-11.4-0.7-4.3-29.3-175.8c2.9-0.4 5.8-0.9 8.8-1.2 8.1-1.1 16.5-1.8 25.2-1.9 1.4 0 2.9 0 4.3 0 67.8 0.3 145.6 31.9 178.6 124q0.7 2.1 1.4 4.2c7 20.8 11.7 44.6 13.7 71.6 3.6 50.6-15.4 98.8-48.5 135.3-0.6 0.8-1.3 1.4-1.9 2.1q-7.2 7.8-15.3 14.8c-15.4 13.4-32.9 24.6-52 32.8-11.4 5-23.3 8.9-35.7 11.7-3.3 0.7-6.5 1.3-9.9 1.9-5.7 0.9-13.4 2-24.2 2.6z"/><path class="o" d="m1691.9 791.6l-200.7 66.9q0 0 0 0l-4.8-12.2c-5.5-16.7-9.2-34.8-9.9-55.2-0.9-26.4 3.7-52.1 12.9-75.8z"/><path class="p" d="m837.5 965.7l-0.3-16.1h124.9l0.3 16.1z"/><path class="p" d="m835.8 917.1l-0.3-16.2h215.1l0.4 16.2z"/><path class="p" d="m833.6 868.4l-0.4-16.1h181.3l0.4 16.1z"/><path class="p" d="m970.7 965.7l-0.3-16.1h24.6l0.3 16.1z"/><path class="p" d="m1071.6 965.7l-0.4-16.1h125l0.3 16.1z"/><path class="p" d="m1069.9 917.1l-0.3-16.2h215.1l0.3 16.2z"/><path class="p" d="m1067.6 868.4l-0.3-16.1h181.3l0.3 16.1z"/><path class="p" d="m1204.8 965.7l-0.3-16.1h24.6l0.3 16.1z"/><path class="p" d="m836.4 821.5l-0.4-16.1h124.9l0.4 16.1z"/><path class="p" d="m969.6 821.5l-0.3-16.1h24.5l0.4 16.1z"/><path class="p" d="m1070.4 821.5l-0.3-16.1h124.9l0.3 16.1z"/><path class="p" d="m1203.7 821.5l-0.4-16.1h24.6l0.3 16.1z"/><path class="p" d="m1328.4 469.9l-28.4-0.1c0-1.1-0.1-2-0.2-3.1-1.8-16.8-15.9-29.4-32.5-29.4v-28.5c31 0 57.6 23.5 60.8 55 0.2 2.1 0.3 4 0.3 6.1z"/><path class="l" d="m1318.9 482.3c0 33.8-27.4 61.2-61.2 61.2-33.8 0-61.2-27.4-61.2-61.2 0-33.8 27.4-61.2 61.2-61.2v28.6c-18 0-32.7 14.5-32.7 32.6 0 18 14.7 32.6 32.7 32.6 18 0 32.6-14.6 32.6-32.6z"/><path class="p" d="m1072.4 687.4h-4.6v-70.9l127.3-95.2 2.7 3.6-125.4 93.9z"/><path fill-rule="evenodd" class="p" d="m1070.1 727.9c-11.8 0-21.4-9.6-21.4-21.4 0-11.8 9.6-21.5 21.4-21.5 11.8 0 21.4 9.7 21.4 21.5 0 11.8-9.6 21.4-21.4 21.4zm0-38.2c-9.3 0-16.8 7.5-16.8 16.8 0 9.3 7.5 16.8 16.8 16.8 9.3 0 16.8-7.5 16.8-16.8 0-9.3-7.5-16.8-16.8-16.8z"/><g clip-path="url(#cp1)"><path class="q" d="m1473.1 1678c-18.1 28.2-63.5 55.5-69.8 114.1l-0.1-0.1c-12.2 112.5-3.6 273.7-71.9 364-85.7 113.3-297.8 9.4-244-127.6 16.8-42.6 185.4-172.4 227.9-285.8 0.7-22.8 3.1-105 3.6-133.2 0.4-18.9 4-65.5 21.5-86.4q0.1-0.5 0.4-0.9c20.2-33.1 88-98.1 108.7-122.8 9.1-10.9 13.3 5.9 4.4 32.7-10.8 32.2-37.6 72.4-57.4 95.7 11.1 8.3 21.9 18 42.2 23.8 24.4 7 28.8 32.9 45.4 49 16.6 16.2 7.2 49.4-10.9 77.5z"/><path class="d" d="m870.2 1568.6c-17.5 3.9-78-17-100.6-33.3l-9.2-21-11.8 10.7c-40.5-17.7-44.3-167.5-9.2-244.5 26.8-58.9 145.8-165.3 211.4 10 0 0-64.7 1.6-63.4 64.6 0 3.8-17.2 213.5-17.2 213.5z"/><path class="q" d="m1050.3 1542.7l-30.1 115.1c-8.8 9.3-54-4.5-125.5-61.6l41-101.3c0 0 42.2 22.7 114.6 47.8z"/><path class="d" d="m1041.1 1577.7l-13.3 51.1c-67.8 1.3-43.2-81.6-43.1-81.5 27 20.7 46.7 31.4 56.4 30.4z"/><path class="q" d="m1056 1593.4c-36.6-0.2-103.3-50-118.1-83.5-5.3-11.9 10.1-199.9 47.3-213 15.7-5.5 113 11.5 127.7 11.5 33.8 0 34.2 84.5 34.4 133.1 0.4 54.4-26.8 152.4-91.3 151.9z"/><path class="d" d="m897.2 1293.3c52.2-70.8 123.5-27.6 182.5-27.6 109.1 0 67.7 92.8 39.1 106.6-26.7 12.9-19.4 68.7-44.6 125.7 0 0-19.5-99.3-32.2-82.9-12.8 16.6-51.8 86.9-70.4 120.9-13.6 4-26.9 8.7-40 14.2 11.7-32.2-107.3-157.9-34.4-256.9z"/><path class="q" d="m1054 1428.5c5.8 17.9-4.1 37.2-22.1 42.9-18 5.8-37.2-4.1-43-22.1-5.8-18 4.1-37.2 22.1-43 18-5.7 37.2 4.2 43 22.2z"/><path class="d" d="m1020.5 1464.3c-3.9 0-8-1.4-10.7-2.8l2.8-5.6c0.1 0 9.7 4.6 12.5-0.1 0.8-1.4 0.8-1.4-1.4-3.5-2.6-2.4-6.4-6.1-4.9-13.8 1.1-5.3 3.9-8.5 6-10.7 2.8-3.3 3.5-4-0.7-9.2-1.1-1.5-2.5-2.2-4.2-2.2q-0.1 0-0.1 0c-6.8 0-16.8 10.1-19.7 13.7l-4.9-4.1c1.4-1.6 13.6-15.9 24.6-15.9q0.1 0 0.1 0c3.6 0 6.8 1.6 9.2 4.5 7 8.7 4.4 12.8 0.4 17.4-1.9 2-3.8 4.1-4.5 7.7-0.9 4.3 0.9 6 3.1 8.1 2.2 2 5.8 5.5 2.4 11.2-2.3 3.9-6.1 5.3-10 5.3z"/><path class="d" d="m1126.4 2180.4c272.8 256.2 443.3 517.7 380.8 584.3-62.5 66.5-334.2-87.2-607-343.4-272.8-256.1-443.3-517.7-380.8-584.2 62.4-66.6 334.2 87.2 607 343.3z"/><path class="r" d="m1900.2 2547.4c2.3 222.8-49.7 412.3-69.4 516.2-15.6 81.8-54.7 124.7-124.4 158.6-22.8-11.8-217.5 10.5-294.1-0.4-83.1-210.6 97.4-383.7 50.2-494.9-11.6-27.5-315.1 99.6-422.9 99.6-479.2 0-191.7-416.8-148.7-438.4 62.2-26 1005.5-205.2 1009.3 159.3z"/><path fill-rule="evenodd" class="d" d="m1472.9 3227.2c-23.7 0-44.9-0.9-61-3.1l-1.3-0.2-0.5-1.3c-48.1-121.8-7.8-233.2 24.6-322.8 24.4-67.4 45.4-125.5 25.7-172-4.9-11.5-91.1 15.4-167.1 39.1-93 29-198.4 61.9-253.7 61.9-158.8 0-250-45.2-271.1-134.3-30.1-126.8 93.4-294.5 121.4-308.5l0.1-0.1c24.3-10.1 197.4-46.8 394-61.2 174.4-12.7 408.3-10.7 532.2 71 56.6 37.3 85.6 88.3 86.3 151.6 1.9 182.1-32.8 344-55.8 451.1-5.4 25-10 46.6-13.6 65.7-14.8 77.5-51.2 123.9-125.7 160.2l-1 0.5-1-0.5c-10.6-5.5-64.1-3.1-120.8-0.6-37 1.7-77 3.5-111.7 3.5zm-59-7.6c39.4 5.4 109 2.2 170.5-0.5 60.5-2.7 108.6-4.9 122 0.5 73.2-35.9 107.5-79.8 122.1-156.4 3.7-19.1 8.3-40.7 13.6-65.8 23-106.9 57.6-268.5 55.8-450-0.7-61.7-29-111.4-84.2-147.8-122.9-81-355.7-82.9-529.3-70.2-195.9 14.2-368.2 50.7-392.5 60.8-26.7 13.5-147.8 181.3-118.9 303.2 20.6 86.8 110.2 130.8 266.6 130.8 54.6 0 159.6-32.8 252.3-61.7 106.2-33.2 166.6-51.2 172.8-36.6 20.4 48.2-0.9 107.2-25.6 175.5-33.7 93.1-71.8 198.6-25.2 318.2z"/><path class="p" d="m1510.1 2780.2c-167.6 58.6-690 193-778.7-58.1-23.4-66.3 65.5-210.7 125.1-245.4 186.2-108.5 480.3-116.5 696.7-138.5 182.7-15.1 313.6 30.5 386.6 351.1 34.3 150.3 149.4 350.6 62.1 487.6-29.5 6.2-195.8 53.1-244.8 81.8-113.6-33-157.8-168.2-172.2-343.5-5.1-62.5 27.5-170.7-74.8-135z"/><path fill-rule="evenodd" class="d" d="m1757.4 3261.2l-1-0.2c-101.6-29.6-156.9-139.4-173.8-345.6-1.2-13.7-0.5-30 0.2-45.6 1.5-36.3 3.1-73.7-16.2-88-11.5-8.6-29.8-8.4-55.7 0.6-99.4 34.7-268.9 78.3-419.6 87.2-201.7 11.8-323.5-37.5-362.1-146.7-23.6-66.7 66-213.2 126.2-248.2 156.9-91.5 386.4-111.4 588.9-128.9 38.1-3.3 74.2-6.4 108.6-10 108.1-8.9 178.6 6.2 236.1 50.2 69.5 53.3 118.2 149.5 153.1 302.8 8.9 39.1 23.2 81.2 38.2 125.7 41.6 122.6 88.7 261.5 23.5 363.6l-0.5 0.8-1 0.2c-31.8 6.8-196.2 53.5-244.1 81.6zm-170.1-346.2c16.7 203.4 70.6 311.9 169.5 341.2 48.9-28.1 209.7-74 243.7-81.4 63.2-100.2 16.6-237.6-24.5-358.8-15.1-44.7-29.4-86.8-38.4-126.2-71.2-312.8-194.9-365-384.2-349.3-34.4 3.5-70.5 6.6-108.6 9.9-202 17.5-431 37.4-587 128.3-59 34.3-147.1 177.6-124.1 242.7 37.8 106.9 158.1 155.3 357.4 143.5 150.2-8.8 319.2-52.3 418.3-86.9 27.5-9.6 47.2-9.6 60.1 0 21.2 15.8 19.6 54.5 18 92-0.7 16.2-1.3 31.6-0.2 45z"/><path class="c" d="m1059.5 2312.9c16.8-0.8 8.1 14.5 5.4 18 55.1-12.4-37.1 92.5-58.5 121.5-86 138.6-312.1 327.3-312.1 327.3-146.3-92.5-209.7-324.3-209.7-598.6 0-229.1 227.5-563 418.4-618.4 38.9-11.4 150 51.8 182.3 101.6 9.5 14.7 111.1 324.6 81.7 487.8-10 55.6-103.1 148.6-107.5 160.8z"/><path class="c" d="m1037.3 1970.4c-58.1-59.7-69.9-368.3-54.6-386.2 100.3 55.1 532.9 257.3 658.7 419.4 22 28.4 78.6 166.2 42.4 187.5-19.9 11.7-42.6 10.6-65 11-73.3 1.2-154.7-0.7-228.1 0.5-53.5 0.9-332.6-210.7-353.4-232.2z"/><path class="s" d="m1479.6 2793.2c-286 333.4-674.8 182.4-833.7 33.6-343.7-321.9-262.8-728.8-137.6-968-20.8 90.5 143 328.8 391.9 562.5 219.1 205.8 548.4 358.4 548.9 358.6 10.1 4.5 20.3 8.9 30.5 13.3z"/><path class="d" d="m982 2365.5l-2.2-5.9c17.6-6.4 34.7-14.5 50.8-24.1 11-6.5 22-14.2 27.5-25.5l5.7 2.7c-6.2 12.9-18.6 21.5-30 28.2-16.4 9.8-33.8 18.1-51.8 24.6z"/><path class="d" d="m952.3 2391l-0.6-6.3c25-2.4 49.5-10.6 71-23.7l3.3 5.4c-22.3 13.6-47.8 22.1-73.7 24.6z"/><path class="d" d="m975.6 1914.4c62.3 53.1 120.4 96.9 196.1 158.7 4.5 23 2.6 33.3-2.5 59.1-19-7.7-118.9-65-136.6-75.3-40.3-23.3-42.7-118.1-57-142.5z"/><path class="p" d="m1445.6 2071.3c-2.1 0-204.5-3.1-296.8-86.8l4.2-4.7c90.5 82.1 290.6 85.2 292.6 85.2z"/></g><path class="l" d="m2660.2 1203.1c-2.1 59.8-49.4 107.3-108 111v0.5l-655.5-23.3c-71.5-2.5-127.4-62.5-124.9-134 2.6-71.5 62.6-127.4 134.1-124.9 21.2 0.8 41 6.7 58.3 16.3q-0.6-9.2-0.2-18.6c3.5-100.5 87.9-179 188.4-175.5 74.6 2.7 137 49.9 162.9 115.1 22.7-18.8 52-29.8 83.8-28.7 68.8 2.5 122.6 60.2 120.2 129-0.2 5.8-1 11.5-1.9 17 10.1-2.5 20.7-3.7 31.7-3.3 63.6 2.2 113.4 55.7 111.1 119.4z"/><path class="t" d="m2613.1 1196.2c0 59.9-45.6 109.1-104 114.8v0.6h-655.9c-71.6 0-129.6-58-129.6-129.6 0-71.5 58-129.5 129.6-129.5q1.1 0 2.2 0h0.1c20.3 0.4 39.5 5.5 56.5 14.2q-0.9-9.1-0.9-18.5 0-7.7 0.6-15.2c7.7-93.5 86-166.9 181.5-166.9q5.7 0 11.4 0.3c69.7 4.4 128.8 47.9 155.4 108.8 18.3-16.2 41.3-27.2 66.7-30.5q7.9-1.1 16.1-1.1c11.7 0 22.9 1.6 33.6 4.6 52.5 14.7 91 62.9 91 120.1 0 5.8-0.5 11.4-1.3 17 10.1-2.8 20.7-4.5 31.6-4.5 63.7 0 115.4 51.7 115.4 115.4z"/><path class="l" d="m2226.1 1140.3c9.8 4.4 13.6 16.3 8.3 25.6-4.7 8-14.6 11.2-23.1 7.4-15.7-6.9-33-10.8-51.1-10.8-18.2 0-35.5 3.9-51.1 10.8-8.5 3.8-18.5 0.6-23.1-7.4-5.4-9.3-1.5-21.2 8.3-25.6 20.1-8.9 42.4-13.9 65.9-13.9 23.4 0 45.8 5 65.9 13.9z"/><path class="l" d="m2274.9 1057.3c9.3 4.7 12.8 16.2 7.6 25.2l-0.1 0.2c-4.7 8.2-15 11.4-23.5 7.2-29.8-14.8-63.3-23.1-98.7-23.1-35.4 0-68.9 8.3-98.7 23.1-8.5 4.2-18.8 1-23.5-7.2l-0.1-0.2c-5.2-9-1.7-20.5 7.6-25.2 35.2-17.5 74.2-26.7 114.7-26.7 40.4 0 79.5 9.2 114.7 26.7z"/><path class="l" d="m2183.9 1233.3c0 13.1-10.6 23.7-23.7 23.7-13.1 0-23.8-10.6-23.8-23.7 0-13.1 10.7-23.8 23.8-23.8 13.1 0 23.7 10.7 23.7 23.8z"/><path class="d" d="m1587.9 1272h-49.8v-119.6h49.8z"/><path class="d" d="m1637.5 1254.9l-74.5 101.5h-17.8v-24.3l-56.6-77.2z"/><path class="h" d="m1570.1 1272h-49.8v-119.6h49.8z"/><path class="h" d="m1619.7 1254.9l-74.5 101.5-74.5-101.5z"/><path class="d" d="m1409.8 1314.2h-49.8v-119.6h49.8z"/><path class="d" d="m1310.5 1211.7l56.6-77.2v-24.3h17.8l74.5 101.5z"/><path class="u" d="m453.8 716.2l-87 107.1-107.1-86.9 86.9-107.2z"/><path fill-rule="evenodd" class="d" d="m373.2 799.1l-109-88.4 88.4-109 109.1 88.4zm-105.6-88.8l105.2 85.4 85.4-105.3-105.2-85.4z"/><path class="h" d="m1702.8 162.2c7.2 3.8 10 12.8 6.1 20-3.8 7.2-12.8 10-20 6.1-7.2-3.8-10-12.8-6.1-20 3.8-7.2 12.8-10 20-6.1z"/><path class="v" d="m2232.5 542.6c5.6 2.9 7.8 9.9 4.8 15.5-3 5.6-9.9 7.8-15.6 4.8-5.6-3-7.7-9.9-4.7-15.5 2.9-5.7 9.9-7.8 15.5-4.8z"/><path class="h" d="m388.6 1294.3c11.3 6 15.5 19.9 9.6 31.1-6 11.2-19.9 15.5-31.1 9.6-11.2-6-15.5-19.9-9.6-31.1 6-11.2 19.9-15.5 31.1-9.6z"/><path class="h" d="m758.5 350.7c11.2 6 15.5 19.9 9.6 31.1-6 11.2-19.9 15.5-31.1 9.6-11.2-6-15.5-19.9-9.6-31.1 6-11.3 19.9-15.5 31.1-9.6z"/></svg>