<svg version="1.2" xmlns="http://www.w3.org/2000/svg" viewBox="0 0 2442 2000" width="2442" height="2000"><defs><linearGradient id="P" gradientUnits="userSpaceOnUse"/><linearGradient id="g1" x1="591" y1="372" x2="1758.3" y2="372" href="#P"><stop stop-color="#ffe7c9"/><stop offset="1" stop-color="#f5ca95"/></linearGradient><linearGradient id="g2" x1="848.4" y1="2044.4" x2="-15.6" y2="1180.4" href="#P"><stop stop-color="#d49546"/><stop offset="1" stop-color="#f0c692"/></linearGradient><linearGradient id="g3" x1="975.5" y1="2327" x2="238.5" y2="1590" href="#P"><stop stop-color="#a37033"/><stop offset="1" stop-color="#d4a05f"/></linearGradient><linearGradient id="g4" x1="894" y1="416.8" x2="1469.1" y2="416.8" href="#P"><stop stop-color="#d1a988"/><stop offset="1" stop-color="#a88663"/></linearGradient><linearGradient id="g5" x1="880.2" y1="1593" x2="945" y2="1225.2" href="#P"><stop stop-color="#a48a7b"/><stop offset="1" stop-color="#e3ddd3"/></linearGradient><linearGradient id="g6" x1="1475.1" y1="1701" x2="1218.8" y2="1257" href="#P"><stop stop-color="#a48a7b"/><stop offset="1" stop-color="#fff"/></linearGradient><linearGradient id="g7" x1="801" y1="853" x2="801" y2="626" href="#P"><stop stop-color="#a67b5a"/><stop offset="1" stop-color="#9e7a52"/></linearGradient><radialGradient id="g8" cx="969.8" cy="656.5" r="363.3" href="#P"><stop stop-color="#a48a7b"/><stop offset="1" stop-color="#e3ccba"/></radialGradient></defs><style>.a{opacity:.6}.b{fill:#999}.c{fill:url(#g1)}.d{fill:url(#g2)}.e{fill:url(#g3)}.f{fill:url(#g4)}.g{opacity:.5;mix-blend-mode:multiply;fill:url(#g5)}.h{mix-blend-mode:multiply;fill:url(#g6)}.i{fill:#ffe3c5}.j{opacity:.5;mix-blend-mode:multiply;fill:#b17f4a}.k{fill:url(#g7)}.l{mix-blend-mode:multiply;fill:url(#g8)}</style><path class="a" d="m1764 1202l237 25-417 597-1088-401 176-327 495-96z"/><path class="b" d="m1758.3 484l-13 790.4-400.7 269.8-739.5-158.8-14.1-811.6 444.3-201.8z"/><path class="c" d="m1035.3 372l723 112-409.7 220.4-757.6-130.6z"/><path class="d" d="m605.1 1385.4l-14.1-811.6 757.6 130.6-4 839.8z"/><path class="e" d="m1758.3 484l-13 790.4-400.7 269.8 4-839.8z"/><path class="f" d="m894 626q215.3-104.6 430.5-209.2l144.6 22.4q-211.8 106.5-423.5 212.9z"/><path class="g" d="m1345 1464l-0.4 80.2-739.5-158.8-1.5-89.7c53.3 109.8 675.2 217.7 741.4 168.3z"/><path class="h" d="m1746.7 1184.3l-1.4 90.1-400.7 269.8 0.4-80.2c107.2 26.3 380.4-195.6 401.7-279.7z"/><path class="i" d="m1347.5 697.2l262.1-133.3-252.8 143.2-11.8 756.2-4.3-752-287.7-57.9z"/><path class="j" d="m1402.7 428.9l-427.2 211.2-11.4-2 426.8-211z"/><path class="k" d="m1042.9 849.2l-4.8 3.2-10.9-8.7-11.6 5.8-7-5.4-5.2 1.9-9.3-12.8-15 10.9-12.6-7.1-4.8 3.2-7.3-9-11.3 2.6-9.9-7.4-5.2 3.5-14.4-11.2-8.7 5.8-9.3-12.2-1.6-186.3 151.6 26.1 0.7 200.9z"/><path class="l" d="m609.4 597.8c-1.9-0.3-3.1-2.1-2.8-3.9 0.3-1.9 2.1-3.1 3.9-2.8l719.7 124c1.9 0.3 3.1 2.1 2.8 4-0.3 1.8-2.1 3.1-3.9 2.8z"/></svg>