<svg version="1.2" xmlns="http://www.w3.org/2000/svg" viewBox="0 0 2442 2000" width="2442" height="2000"><style>.a{fill:#f7cc7f}.b{fill:#9bc1f9}.c{fill:#efefef}.d{fill:#184655}.e{fill:#fae0b2}.f{fill:#466eb6}.g{fill:#96d9c9}.h{fill:#86b1f2}.i{fill:#50bfa5}.j{fill:#f48c7f}.k{fill:#fff3d9}.l{fill:#fed333}.m{fill:#f47458}.n{fill:#f47257}.o{fill:#f7a491}.p{fill:#f8a492}.q{fill:#b75742}.r{fill:#13375b}.s{fill:#ff3b3b}.t{fill:#355389}.u{fill:#3c8f7c}.v{fill:#82c7e6}.w{fill:#b32323}.x{fill:#def0f8}</style><path class="a" d="m1453.9 305c35-51.8 98.9-119.2 164.5-154.6 39.7-21.9 85-34.2 131.2-29.1v0.6c-102.3-3.1-189.5 78.5-248.2 163.2-12.7 18.2-22.5 35-22.9 36.1z"/><path class="a" d="m1726.9 168.7l6.9-47.6-35.3-32.7c-4.1-3.7-2.1-10.4 3.3-11.4l47.5-8.1 20.2-43.7c2.3-5 9.3-5.2 11.8-0.3l22.4 42.6 47.8 5.7c5.5 0.6 7.8 7.3 4 11.2l-33.6 34.5 9.3 47.2c1.1 5.3-4.5 9.6-9.4 7.2l-43.1-21.3-42 23.5c-4.8 2.6-10.6-1.3-9.8-6.8z"/><path class="b" d="m796.6 81.6l-6.3 23.3 18.9 15.9-8.9 25.6 25.3 10.7-8.8 29.5 22.1 12.7-3.9 29.7-11.2-1.4 2.8-22.3-23.3-13.4 8.5-28.3-25.7-10.9 9.8-28.3-18.4-15.5 5.8-21.6-14.2-7.6 5.3-10z"/><path class="a" d="m263.9 1531.7c27.3 30.4 24.8 77.2-5.7 104.5-30.4 27.2-77.1 24.7-104.4-5.8-27.3-30.4-24.7-77.2 5.7-104.4 30.4-27.3 77.2-24.7 104.4 5.7z"/><path class="c" d="m246.1 1563.4c14.6 16.3 13.3 41.3-3 55.8-16.3 14.6-41.3 13.3-55.9-3z"/><path class="d" d="m2143.8 1958.9c0 4.6-3.7 8.4-8.4 8.4h-1772.7c-4.6 0-8.4-3.8-8.4-8.4 0-4.7 3.8-8.4 8.4-8.4h1772.7c4.7 0 8.4 3.7 8.4 8.4z"/><path class="e" d="m183.4 1346.4l-19.3-10.9c-5.3 8.5-11.8 16.1-18.1 21.9-5.3 4.8-13.4 4.7-18.5-0.3l-0.7-0.6c-5.6-5.4-5.5-14.6 0.4-19.8 6-5.3 11.8-11.9 16.3-19.9 6.6-11.6 6.6-22.1-1.5-26.7-7.8-4.4-16.3-0.6-30 11.6-19.6 17.6-38.2 26.7-58 15.5-17.9-10.2-24.7-30.8-16.7-55l-19.3-10.9 11.3-20 17.9 10.2c4.5-7.2 9-12.7 13.2-17.1 5.2-5.2 13.7-5.3 19-0.2 5.5 5.3 5.5 14.2 0 19.5-4.1 4-8.6 9.2-12.6 16.4-7.5 13.2-4.3 20.7 1.4 24 6.8 3.8 15.1-0.9 31.4-14.5 22.3-19.4 39-22.8 57.3-12.4 18.1 10.2 26.3 31.8 17.1 57.5l20.7 11.8z"/><path class="f" d="m2103.5 539.9l-19.3 47.9-55.7-15.5-23.2 42-56.1-6.1 2.4-21.3 41.9 4.6 24.4-44.3 53.6 14.9 12.8-31.9z"/><path class="g" d="m1991.6 1659.8l11.3-27.8c-12.4-5.7-23.8-13-32.6-20.4-7.4-6.2-8.7-17.1-3-24.9l0.7-0.9c6.3-8.6 18.6-10 26.6-3.1 8.2 7.1 18.1 13.7 29.6 18.3 16.7 6.8 30.7 4.9 35.5-6.8 4.5-11.1-2.1-22-20.8-38-27.2-23.2-42.6-46.5-31.2-75 10.4-25.8 36.7-38.7 70.6-32.2l11.2-27.9 28.8 11.6-10.4 25.8c10.4 4.8 18.6 9.8 25.2 14.7 8 6 9.6 17.3 3.7 25.4-6.2 8.3-18 9.9-26.1 3.5-6.1-4.8-13.9-9.9-24.3-14-19-7.7-28.5-2-31.8 6.2-3.9 9.7 3.9 20 25 39.4 29.9 26.4 37.5 48.2 26.9 74.6-10.5 26.1-38 40.9-74.1 33.2l-12 29.9z"/><path class="h" d="m427.6 696.3c2.8 3.7 2.6 9-0.5 12.5-6.2 6.9-16.3 15.2-28.9 21.3-18.5 9.1-39.7 11.8-59.7 4.9-12.5-4.3-24.4-13.1-33.3-25l-11 5.3c-3.7 1.8-8.2 0.2-10-3.5l-0.1-0.3c-1.8-3.7-0.3-8.1 3.4-9.9l9-4.4c-1.8-3-3-4.8-3.8-6.5-1.4-2.8-2.8-6.3-4-10.2l-9.2 4.5c-3.7 1.8-8.2 0.3-10-3.4-1.8-3.7-0.3-8.2 3.4-10l11.2-5.5c-3.2-14.4-2.6-28.9 1.7-41.4 7.4-21.2 23.4-37.4 42.7-46.8 11.3-5.5 20.8-7.7 28.6-8.5 5.4-0.6 10.2 3.2 11 8.6v0.2c0.8 5.6-3.1 10.7-8.7 11.4-6.3 0.9-13.7 2.9-22.1 7-12.4 6-22.8 15.9-27.9 30.2-2.9 8.3-3.7 18.1-0.9 27.4l63.1-30.7c3.7-1.8 8.1-0.2 10 3.5 1.8 3.7 0.2 8.2-3.5 10l-65.8 32.1c1.2 3.2 2.4 6.4 3.4 8.3 1.2 2.6 2.4 5.1 4.3 8.3l66-32.1c3.8-1.9 8.4-0.3 10.2 3.5 1.9 3.8 0.3 8.4-3.5 10.2l-63.2 30.8c5.9 7.2 13.3 12.2 20.8 14.8 14.8 4.9 28 3.4 42-3.4 8.5-4.2 15.4-9.5 20.6-14.4 4.3-4.1 11.1-3.5 14.7 1.2z"/><path class="i" d="m224.2 915.9l-49.1 5-11.6-54-45.8-1-19.6-50.1 19-7.5 14.6 37.5 48.3 1.1 11.2 51.9 32.6-3.3z"/><path class="e" d="m1778.9 515.9l20.4 6.8c0 0 32.5-10.6 35.7-17.2 3.2-6.6 4.1-22.7 8.7-23.1 4.6-0.4 13.6 1.1 15.7 12.1 1.5 7.9-10.1 31-8.3 33.4 1.1 1.6 12.8 5.8 21.4 8.7 5.6 2 9.7 6.9 10.5 12.9 0.6 4.1-1.7 8-5.5 9.5l-5.9 2.3 1.9 6c1.4 4.6-1.1 9.4-5.5 10.9l-4.6 1.6 1.5 3.7c1.8 4.8-0.8 10.2-5.7 11.6l-4 1.1 0.2 1.1c0.7 4.4-2.1 8.7-6.4 9.8l-4 1.1-54.5-18c-5.1-1.7-9.8-4.5-13.8-8.1l-18.2-9.5c-1.9-1.1-2.8-3.4-2.1-5.5l16.8-48.4c0.8-2.3 3.3-3.6 5.7-2.8z"/><path class="a" d="m530.4 580.9c-0.5-1.3-11.4-20-25.5-40.3-65.6-94.6-163-185.7-277.1-182.3l-0.1-0.7c51.6-5.6 102.2 8.1 146.6 32.6 73.2 39.5 144.5 114.7 183.6 172.5z"/><path class="a" d="m242.2 418.2l-46.9-26.2-48.2 23.7c-5.5 2.7-11.7-2-10.5-8l10.5-52.7-37.6-38.5c-4.2-4.4-1.6-11.8 4.5-12.5l53.3-6.4 25-47.5c2.9-5.5 10.7-5.3 13.3 0.3l22.5 48.8 53 9.1c6 1 8.2 8.5 3.7 12.7l-39.4 36.5 7.7 53.2c0.9 6-5.5 10.5-10.9 7.5z"/><path class="a" d="m2038.3 1333.2l3.7-12.6c19.6-3.7 36.4-16.8 42-35.8 1.8-6 3-11.1 3.9-18l-26.2-7.5 4.6-15.9 23.7 6.8c1-7.9 2.3-18.2 5.2-28 8.7-29.8 35.1-43.3 63.3-35.1 8.1 2.3 14.3 5.3 18.9 8.4 4.2 2.8 5.3 8.5 2.6 12.7-2.8 4.2-8.5 5.4-12.8 2.7-3.6-2.2-8.2-4.3-13.9-5.9-19.9-5.7-32 5.5-37.3 23.4-3.2 10.9-4 19.4-4.9 27.9l36.7 10.5-4.7 15.9-34.6-9.9c-2 9.8-4.3 19.5-9.3 27.9-6 10-14.7 17.4-25.5 22.2l-0.2 0.5 66.9 19.2c5 1.5 7.8 6.6 6.4 11.5l-0.2 0.7c-1.5 4.9-6.6 7.7-11.6 6.2z"/><path class="f" d="m27.5 591.5l12.5-21-10.3-22.2c-1.2-2.5 1.1-5.3 3.8-4.7l23.8 5.4 17.9-16.7c2.1-1.9 5.4-0.6 5.7 2.2l2.3 24.3 21.3 11.9c2.4 1.4 2.3 4.9-0.3 6l-22.4 9.7-4.8 24c-0.5 2.8-3.9 3.7-5.8 1.6l-16.1-18.3-24.3 2.9c-2.8 0.3-4.7-2.7-3.3-5.1z"/><path class="j" d="m2334 941.3l-27.1-2.2-4 27.2-30.7-1.1-6.8 24.6-29.7 3.7-1.4-11.2 22.2-2.8 7.1-26 29.6 1.1 4.1-27.6 29.8 2.4z"/><path class="j" d="m717.3 267.2l-1.6-27.2-27.5-0.1-3.2-30.6-25.3-3.2-7.9-28.9 10.9-3 6 21.6 26.6 3.4 3.1 29.4 28 0.2 1.8 29.9z"/><path class="a" d="m80.7 1141.6l22.6 8.6 17.7-17.2 24.6 11.5 13.2-24.1 28.4 11.7 14.9-20.7 29.2 6.9-2.6 11-21.8-5.1-15.7 21.8-27.3-11.2-13.5 24.5-27.1-12.7-17.3 16.8-20.9-8-9.1 13.4-9.4-6.4z"/><path class="i" d="m1454 192.1l-2.2 27.4-30.7 0.9-5.1 25-29.5 5.7-2.1-11.1 22-4.3 5.4-26.4 29.5-0.8 1.5-18.2z"/><path class="k" d="m2042.1 193.2c34.1 32.7 35.2 86.8 2.5 120.9-32.7 34.1-86.8 35.2-120.9 2.5-34-32.6-35.2-86.8-2.5-120.8 32.7-34.1 86.8-35.3 120.9-2.6z"/><path class="l" d="m2040.6 264.7l-36.3 11.2-11.5 36.3c-0.9 2.9-4.8 3.5-6.5 1l-21.9-31.1-38.1 0.4c-3 0-4.8-3.5-3-6l22.9-30.4-12.1-36.1c-1-2.9 1.8-5.7 4.7-4.7l36 12.3 30.6-22.6c2.5-1.9 6-0.1 5.9 3l-0.6 38.1 31 22c2.5 1.8 1.9 5.7-1.1 6.6z"/><path class="m" d="m2273.6 652.7c-1.2 2.1-3.9 1.8-4.7-0.4l-6.9-20.6-19.4-5.1c-2.1-0.5-2.7-3.5-0.9-5l15.7-13.9-1.2-21.9c-0.1-2.4 2.3-4 4.1-2.7l16.6 12 18.7-8.5c2-0.9 4.1 1.1 3.5 3.4l-5.5 21.3 12.8 16.7c1.3 1.8 0.2 4.6-2 4.7l-20 1.2z"/><path class="n" d="m877.9 725.8c-8.3-9-22.5-8.7-22.5-8.7l5.5-1.7c0.7-0.7 3.7-1.5 4.5-2 8.6 5.2 12.5 12.4 12.5 12.4z"/><path class="o" d="m1546.4 791.7l-36.6-2.5c0 0-10.3-68.7-11.7-79.2-0.3-2.2 0.5-5.6 1.9-9.6 12.9 0.9 55.1 8.9 57.3 9.9l-2.9 9c-1.2 6.9-4 17.6-9.6 21.8-4.5 9.8 1.6 50.6 1.6 50.6z"/><path class="m" d="m1545.7 712.3c0 0-7.5 3.4-15.9 13.5 0 0-20.1-14.2-19.2-18.4 1.2-5.5 21.9 5.8 21.9 5.8z"/><path class="o" d="m1788.6 1683.5c0 0 56.2 40.5 65.1 52.6 12.7 17.4-95.3 50-83.5 29.6 2.7-4.7 10.5-20.5 10.8-22 1.9-8.3-21.1-30.7-21.1-30.7z"/><path class="a" d="m1741 1799.8l38.2-54c0 0 23.8-5.5 48.3-33 0 0 22 8.3 35.5 26.5 0 0-25.6 27.6-64.9 58.6 0 0-23.4 20.6-55.6 31.6-32.3 10.9-1.5-29.7-1.5-29.7z"/><path class="p" d="m2253.5 686.6c-6.3 16.1-14.2 27.1-14.6 27.6-2.5 3.1-8.4 16.9-18.9 26.4-10.5 9.6-27.7 24.3-27.7 24.3-2.5 4.5-11.4 19.1-22.8 37.6l-34.2-24.9q0.6-0.6 0.6-0.6c0 0 28.8-41.6 28.9-45.3 0.2-3.2-3.9-2.2-3.4-27.1 0.1-7.2 5.3-16.2 5.3-16.2 0 0 6.5-11 9.4-10.3 2.8 0.8 4.3 4.3 3.9 6.7-0.5 2.4-3.6 6.5-4 8.9-0.4 2.5 3.2 8.6 5.4 10.1 2.2 1.5 20.8-31.3 20.8-31.3 0 0 4.8-9.7 6.1-13.1 1.1-2.8 4-11.6 4-11.6 0 0 4.6-12.3 8.1-10.8 2.1 0.9 0.9 12.9-2.1 24.3-3.2 12.2-8.3 24-7.2 24.6 2.4 1.4 12.7-16.5 12.7-16.5 0 0 3.1-9.5 5.6-13.2 1-6.1 5.2-15.5 9.4-13.3 0.8 0.4-1.5 14.7-1.5 14.7 0 0-3.1 9-4.4 13.3-2.2 7.7-8.5 17.7-10.3 22.8-1.6 4.2 0.2 3.3 0.4 3.7 0.2 0.4 3.1-4.9 7.1-12.1 2-3.6 5.1-7.3 6.8-11.8 1.6-4.2 4.6-9.7 6.5-13 5.4-9.3 9.9-4.4 6.2 5-1.4 3.6-2.9 7.5-4.5 11.4-6.2 15.3-14.8 28-13.6 29.1 1.6 1.4 16.2-22.5 16.2-22.5 0 0 11.3-10.8 5.8 3.1z"/><path class="q" d="m1874.6 1266.9l-8.9 44-223.6 203.3 160.1 161.9-43.2 44.2c0 0-236.4-173.5-244.9-196.3-13.1-35 169.4-266.9 169.4-266.9z"/><path class="o" d="m2039.2 1805.1c0 0 56.2 40.5 65.1 52.6 12.7 17.4-95.3 50-83.5 29.6 2.7-4.7 10.5-20.5 10.8-22 1.9-8.3-21.1-30.7-21.1-30.7z"/><path class="a" d="m1991.6 1921.6l38.1-54c0 0 25.4-4.5 49.9-32.1 0 0 20.4 7.5 33.9 25.6 0 0-25.5 27.6-64.9 58.6 0 0-23.3 20.7-55.6 31.6-32.2 10.9-1.4-29.7-1.4-29.7z"/><path class="m" d="m1866.9 1287.3l3.5 289 177.6 222.7-41.8 46.5c0 0-219.9-182.8-244-235.3-14.9-32.6-69.3-340.3-69.3-340.3z"/><path class="e" d="m1686.6 1264.5c18.2-41 16.1-335.2 86.9-404.1 24.9 4.2 42.6 6.5 46.8 7.6 3.7 30.3 7.7 141.5 10.2 243.5 1.7 67.9 0 139.1 8.3 176.6 5.2 23.3-168.8 13.9-152.2-23.6z"/><path class="o" d="m1387 1029.1c-41.4 2.4-58.8 9-71.5 6.5-12.7-2.4-46.6-14.5-46-27.2 45.4-9.1 124.7 5 124.7 5-5.4 26.5-7.2 15.7-7.2 15.7z"/><path class="f" d="m1743.3 869.7c0 0-18.4 90.2-39.8 105.7-21.3 15.5-129.7 70-136.4 69.6-32.8-1.9-189.6-8.3-189.6-8.3l4.8-50.3 176.8-14.3c0 0 127.9-83.9 145.2-97.1 12.1-7.7 39-5.3 39-5.3z"/><path class="f" d="m1679.5 1284.2c-15.9 0-21.8-2.2-32.3-5.4 0 0-7-118.1 26.9-293.2 12.7-66 13.1-106 39.2-116.2 23.5-9.1 52.3-10.4 60.2-9-69.4 196.1-69.6 347-79.4 390.8-4.9 22-9.2 33.1-14.6 33z"/><path class="o" d="m1832.2 786.1l-12.5 83.6c0 0-21.4 21.6-35.9 18.8-11.9-2.3-10.3-28.1-10.3-28.1l7.3-29.7z"/><path class="o" d="m1832.2 786.1l-12.5 83.6c0 0-21.4 21.6-35.9 18.8-11.9-2.3-10.3-28.1-10.3-28.1l7.3-29.7z"/><path class="m" d="m1775.3 852.9l5.5-22.2 51.2-44.2c-9.1 40.1-37.1 61.7-56.7 66.4z"/><path class="o" d="m1824.8 725.1c16.1 13.4 11.3 39 7.7 58.5-8.3 45.5-46.3 56.1-62.2 53.7-15.9-2.3-34.2-31.7-28.8-63.8 3-17.5 7.6-32.7 11.2-43 4.3-12.3 15.5-20.9 27.9-20.9 14.3 0.1 31.7 5 44.2 15.5z"/><path class="r" d="m1831.9 785.8c3.3-14.3 8.3-11.8-1.6-19.3-10.5-8 7.1-28.9-3.8-37.6-13.1-10.6-77.3 18.1-86.7-15.9-7.1-25.3 13-39 43.9-42.9 14.4-1.9 23.8-2.5 37.7-2 30.9 1.1 67 22 64.6 61.1-2.5 39.1-58.6 89.1-58.6 89.1 0 0 1.2-18.2 4.5-32.5z"/><path class="o" d="m1849 773c-1.4 9.4-7.1 16.3-12.8 15.4-5.6-0.8-9.1-9.1-7.7-18.4 1.4-9.4 7.1-16.3 12.8-15.5 5.6 0.9 9.1 9.1 7.7 18.5z"/><path class="o" d="m1596.7 536.3c0 0-4 22.3-9.2 29.2-5.3 6.9-14.7-19.3-14.7-19.3 0 0 11.7-9.3 13-12.3 0 0.1 0.2-0.8-0.1-1.3-4.8-11.5 2.7-20.6 7.7-11.7z"/><path class="f" d="m2076.8 948.7c-36.4 27.7-169.4 56.7-172.9 60.2-1.3 1.3 7 131.9 8.6 148.4 1.6 17.3 31.6 149 31.6 149 0 0-97.4 23.7-113-12.1-48-110-11.2-426.3-11.2-426.3 0 0 44 12 58.3 15.3 4.2 1 123.4 7.4 159.2-10.2 36.8-18.1 109.5-122.3 109.5-122.3l38.2 37.8c0 0-69.8 131-108.3 160.2z"/><path class="s" d="m412.4 960.9c9.6-44 46.2-75.6 89.2-74.5 9.9-23.1 29.1-42.1 51.7-50.9 44.6-17.4 109.3-9 114.5 40.6 22.5 30.2 29.8 77.4 6.1 107 15.7 43-19.4 92.6-73.2 99.7-14.3 34.1-47 59.8-82.9 61.2-8.6 0.4-21.8 0.3-23.9 1.2 2.6-0.9-50.3 54.7-110.6-8.1-61.5-64.1-37.7-157.5 29.1-176.2z"/><path class="o" d="m815.3 1773.4c-20.3 42.4-29.9 76.1-32.4 83.5-1.5 4.6 10.5 28.6 15.8 49.4-24.7-17.5-51.1-42.1-54.7-83.4 0.8-1.8 7.5-7.9 8.2-9.6 1.5-3.5 12.2-33.4 18.4-67.3 16.8 12.5 24.1 25.1 44.7 27.4z"/><path class="t" d="m892.6 1515.4c4.7 19.1-37.2 193.1-74.4 276.8-17.7-4.5-47.7-18.1-61.2-32 30.7-156.8 44.1-205.8 42.5-209.6-2-5.2-129.8-108.5-153.7-131.3-23.9-22.7-93.6-68-93.6-68l143.1-97.6c0 0 190 232 197.3 261.7z"/><path class="o" d="m267.8 1439.1c6-8.6 96.4-39.2 96.4-39.2 0 0 6.1 4 11.3 31 2.2 11.3 28.9 59 42.6 78.9-17.4 6.6-26.8 18.2-42.3 28-10.6-29.1-38.5-83.5-42.8-87.6-16.8-16.4-71.2-2.6-65.2-11.1z"/><path class="u" d="m327.9 1449.4c-11.9 7.6-94.7 4.3-85.4-13.1 0.3-0.6 2.4-3.2 3.5-4 17-12.2 117.4-46.2 120.6-45.4 1.2 0.3 5.9 2.8 7.7 11 1.6 7.3 9.2 39 2.2 38.9-31.5 0-38 5.8-48.6 12.6z"/><path class="f" d="m661.5 1399.9c0.2 0-80.4 279.6-141.2 300.1-13.4 4.5-74.7-19-158.9-185.8 0 0 42.7-40.6 46.8-35.9 52.8 59.5 80.8 100.9 80.8 100.9 0 0 6.3-32.1 10.8-72.2 6.6-58.4 14.2-137.1 23.9-166.9 23.2-71.2 62.2-58.1 74.8-98.5 1.6-5.1 122.8 42.6 122.8 42.6 0 0-49.9 96.5-59.8 115.7z"/><path class="o" d="m528.6 1060.6c0 0-63-2.1-139.8-8.6-75-6.4-163.7-17.3-175.3-20.5-23.6-6.4-34.1 1.3-48.9 1.5-14.7 0.2-31.5 17.3-34.6 13.1-3.2-4.2 22.3-16.2 22.4-21.5 0.2-5.2-34.6 5.1-37 1.2-4.3-7.1 37.7-13.4 36-16.8-1.8-3.4-45.1 1.1-42.3-6.5 2.9-7.7 45-0.5 45-5.1 0.1-4.6-40.2-3.4-41.9-12.9-0.9-5.1 68.1 5.9 74.5 1 6.4-4.9-14.3-23.8-9.6-29.1 4.8-5.2 33.6 43.5 37.9 44 4.3 0.5 115.5-2.3 143.6-0.7 30.9 1.8 175.6 1.9 175.6 1.9z"/><path class="i" d="m722.8 1284.2c-18.3 11.8-137.6-25.1-134.9-37.4 4.8-22.1 9.7-85.7-17.4-157.5l-7.2-97.4c12.8 0.2 81.5 2.3 101.2 2.4 3 0.1 9.9-3.1 10.2-3 20.4-10.6 46.7-70 46.7-70 25.8-0.3 51 48.1 51 48.1-5.4 10.1-20.3 61.6-27.4 85.7 1.1 7.7 5.7 51.9 3.7 75.1-3.8 47-25.1 153.6-25.9 154z"/><path class="i" d="m571 1090.7c2.4-6.8-79.6-19-79.6-19-10.4-15.3 2.5-79.2 2.5-79.2 0 0 91.6-3 104.3 3.1z"/><path class="o" d="m650.3 923.3c0 0 16 53.6 21.8 66.9 5.9 13.3 37.3 55.5 7.2 61.9-30 6.5-52.1-38.7-53.8-53.2-1.8-14.5-11.3-48-11.3-48z"/><path class="n" d="m618.1 965.3c-2.2-8.2-3.9-14.4-3.9-14.4l36.1-27.6c0 0 2.9 9.8 6.7 22-6.7 13.4-19.8 22.5-38.9 20z"/><path class="o" d="m659.2 900c8.9 30.4-8.3 69.7-49.5 58.4-41.2-11.3-48.5-60.5-43-79.7 5.5-19.2 21.3-28.2 21.3-28.2 43.4-19.3 62.3 19.1 71.2 49.5z"/><path class="o" d="m664.2 888.1c-0.7 8.2-5.1 14.5-9.9 14.1-4.8-0.4-8.1-7.4-7.4-15.6 0.7-8.2 5.1-14.5 9.9-14.1 4.8 0.4 8.1 7.4 7.4 15.6z"/><path class="u" d="m782 1856.7c14.2 13.2 31.8 80.3 21 84.5-1.1 0.4-5 0.4-6.8-0.7-19.5-11.3-86.1-93.3-86.5-96.5-0.2-1.2 0.3-6.5 7.2-11.3 6.2-4.2 32.4-24.9 35-18.4 11.6 29.3 21 33.8 30.1 42.4z"/><path class="s" d="m592.8 847.9c0 0-6.7 55.1-24.3 65.3-17.6 10.2-9.8 34.4-9.8 34.4 0 0-17-56.4-3.2-74.8 13.8-18.3 37.3-24.9 37.3-24.9z"/><path class="o" d="m579.1 920.9c5 7.1 5.1 15.6 0.3 18.9-4.8 3.3-12.7 0.3-17.6-6.8-4.9-7.1-5.1-15.6-0.3-18.9 4.8-3.3 12.7-0.3 17.6 6.8z"/><path class="o" d="m723 929.3c0 0 37.7-72.6 43.6-99.2 5.8-26.7 25.5-160.8 24.4-169.5-2.1-16.5-23.8-27.2-19.8-34.6 4-7.3 24.5-9.6 31.5-9 7 0.7 21 4.7 27 9.7 6 5-6.7 165.8-10.6 200.5-3.8 34.6-50.6 141.2-50.6 141.2z"/><path fill-rule="evenodd" class="v" d="m1475.2 601.4c-7.2 7.4-192.8 16.2-192.8 16.2l4.2-9.2c0 0 110.5-130 136.3-133.4 21.2-2.8 71.6 106.2 52.3 126.4zm-18.2-18.8c-1.7-20.3-21.1-66.2-35-82.3-17.4 12.3-98 70.3-134.3 111.1 54.2-3.1 147.8-25.8 169.3-28.8z"/><path fill-rule="evenodd" class="v" d="m1263.7 603.9l-5.1 11.4c0 0-189.9-29.3-212.5-54.9-22.5-25.7 36.3-99.5 51.4-106.9 15.1-7.4 28.9-6.8 77 29.1 48.1 35.9 89.2 121.3 89.2 121.3zm-7.5 2c-16.2-29-139.5-118.9-142.8-117.3-13.3 9-44 53.6-33.5 65.4 9.8 9.8 105.1 39.6 176.3 51.9z"/><path class="v" d="m1242.2 593.8c0.4-7.5 6.9-13.2 14.5-12.7l22 1.4c7.5 0.4 13.3 6.9 12.8 14.5l-2.7 42.9c-0.5 7.5-7 13.2-14.5 12.8l-22.1-1.4c-7.5-0.5-13.2-7-12.8-14.6z"/><path class="w" d="m1644.8 770l-41.3-2.5-60.2 491.3-697.5-44.1c-24-1.5-42.7-21.5-42.6-45.6l2-450.4-43.8-2.7-7.9-90.1c-2-23.2 17.1-42.7 40.4-41.2l873.6 57.9z"/><path class="o" d="m804 739.3l-7.4 12.1c0 0-11.1-7.8-14.6-10.6-7-5.7-26.9-24.3-26.9-24.3-1.5-1.4-4.5-6.8-4.4-9.4 0.2-2.7 3.8-5.1 6.2-3.9l11.2 9.4c4.8 1.6 14.7 1.2 22.9 5l-0.9 10.7z"/><path class="s" d="m1558.2 1259.8l-535.4-33.9 10.1-614.1 636.1 40.2-62.7 568.1c-2.7 23.7-23.8 41.2-48.1 39.7z"/><path class="s" d="m1687.7 773.1l-690.6-41.9-7.4-133.9 676.3 45.4c22.2 1.5 38.4 21.7 35 43.7z"/><path class="w" d="m997.1 731.2l658.7 39.8-639.9-5.5z"/><path class="v" d="m1264.5 615.8l18.4 1.1-8.3 131.2-18.4-1.1z"/><path class="v" d="m1309.4 749.7l22.9 1.5-31.2 493.2-22.9-1.4z"/><path class="x" d="m806 371.4c2.5-8.6 12.9-15.3 21.8-11.9 47.3 17.8 95 32.7 137.6 44 14 3.7 36.1 4.8 43.2 19 3.9 7.8 1.2 15.1-5.5 20-12.8 9.3-35.7-1.2-49.6-4.9-42.1-11.2-84.3-24.5-135.5-44.4-8.9-3.5-14.8-12-12-21.8z"/><path class="x" d="m1132.8 336.4c-8.7 2.2-20.6-3.4-21.9-13.1-16.4-121.7-17.2-119.7-13.7-132.5 3.6-13 21.6-14.5 28.2-3.3 6.4 10.9 5.4 11.2 20.5 127 1.3 9.7-2.7 19.3-13.1 21.9z"/><path class="x" d="m1308.1 335.4c-7.8-4.7-11.4-16.2-6.1-24 10.2-14.8 19.4-30.4 26.8-46.8 6.9-15 10.1-39 27.3-44.9 4.1-1.4 10.4 0.2 13.1 3.7 12.7 16.2-0.8 40.1-8.1 56.4q-11.9 26.4-29.1 49.5c-5.6 7.6-15.2 11.3-23.9 6.1z"/><path class="x" d="m1507.2 447.4c-8.8 3.6-18.9 2.4-24-6.7-4.4-7.8-2-20 6.6-24 15-6.9 30.4-12.8 46.3-17.2 13.7-3.8 35.8-12.4 48.3-3.1 6.1 4.6 10.4 13.8 5.3 20.9-12.8 17.6-24.9 6.1-82.5 30.1z"/></svg>