<svg version="1.2" xmlns="http://www.w3.org/2000/svg" viewBox="0 0 500 500" width="500" height="500"><style>.a{fill:#ebebeb}.b{fill:#f0f0f0}.c{fill:#e0e0e0}.d{fill:#f5f5f5}.e{fill:#e6e6e6}.f{fill:#fff}.g{fill:#00ab55}.h{opacity:.6;fill:#fff}.i{opacity:.2}.j{fill:#263238}.k{fill:none;stroke:#407bff;stroke-width:.9}.l{opacity:.2;fill:#fff}.m{opacity:.7;fill:#fff}.n{fill:#e4897b}.o{fill:#407bff}.p{opacity:.4;fill:#fff}.q{fill:#de5753}.r{opacity:.7;fill:#00ab55}</style><path class="a" d="m0 382.4h500v0.3h-500z"/><path class="a" d="m416.8 398.5h33.1v0.2h-33.1z"/><path class="a" d="m322.5 401.2h8.7v0.3h-8.7z"/><path class="a" d="m396.6 389.2h19.2v0.3h-19.2z"/><path class="a" d="m52.5 390.9h43.2v0.2h-43.2z"/><path class="a" d="m104.6 390.9h6.3v0.2h-6.3z"/><path class="a" d="m131.5 395.1h93.7v0.3h-93.7z"/><path fill-rule="evenodd" class="a" d="m237 337.8h-193.1c-3.1 0-5.7-2.6-5.7-5.7v-271.4c0-3.2 2.6-5.8 5.7-5.8h193.1c3.2 0 5.7 2.6 5.7 5.8v271.4c0 3.1-2.5 5.7-5.7 5.7zm-193.1-282.6c-3 0-5.4 2.5-5.4 5.5v271.4c0 3 2.4 5.5 5.4 5.5h193.1c3 0 5.5-2.5 5.5-5.5v-271.4c0-3.1-2.5-5.5-5.5-5.5z"/><path fill-rule="evenodd" class="a" d="m453.3 337.8h-193.1c-3.1 0-5.7-2.6-5.7-5.7v-271.4c0-3.2 2.6-5.8 5.7-5.8h193.1c3.2 0 5.7 2.6 5.7 5.8v271.4c0 3.1-2.5 5.7-5.7 5.7zm-193.1-282.6c-3 0-5.5 2.5-5.5 5.5v271.4c0 3 2.5 5.5 5.5 5.5h193.1c3 0 5.5-2.5 5.5-5.5v-271.4c0-3.1-2.5-5.5-5.5-5.5z"/><path class="b" d="m100.4 173.9h141.9v208.1h-141.9z"/><path class="c" d="m105.4 180.4h131.9v38.5h-131.9z"/><path class="a" d="m105.4 186.7h7.5v32.2h-7.5z"/><path class="a" d="m141.6 186.7h7.5v32.2h-7.5z"/><path class="a" d="m182.9 187.1l7.4-1.2 5.4 31.7-7.4 1.3z"/><path class="a" d="m114.7 190.9h7.5v28h-7.5z"/><path class="a" d="m131.9 190.9h7.5v28h-7.5z"/><path class="a" d="m175.4 190.9h7.5v28h-7.5z"/><path class="a" d="m151.6 191.6l7.4-1.7 6 27.4-7.3 1.6z"/><path class="a" d="m124.9 185.1h3.7v33.8h-3.7z"/><path class="a" d="m169.5 185.1h3.7v33.8h-3.7z"/><path class="c" d="m237.3 263.4h-131.9v-38.4h131.9z"/><path class="a" d="m237.3 263.4h-7.5v-32.2h7.5z"/><path class="a" d="m201.1 263.4h-7.5v-32.2h7.5z"/><path class="a" d="m154.3 263.4l-7.4-1.3 5.5-31.7 7.4 1.3z"/><path class="a" d="m228 263.4h-7.5v-28h7.5z"/><path class="a" d="m210.8 263.4h-7.5v-28h7.5z"/><path class="a" d="m167.3 263.4h-7.5v-28h7.5z"/><path class="a" d="m185 263.4l-7.3-1.6 6-27.3 7.4 1.6z"/><path class="a" d="m217.8 263.4h-3.7v-33.8h3.7z"/><path class="a" d="m173.2 263.4h-3.7v-33.8h3.7z"/><path class="a" d="m105.4 231.2h7.5v32.2h-7.5z"/><path class="a" d="m114.7 235.4h7.5v28h-7.5z"/><path class="a" d="m131.9 235.4h7.5v28h-7.5z"/><path class="a" d="m124.9 229.6h3.7v33.8h-3.7z"/><path class="c" d="m105.4 269.5h131.9v38.4h-131.9z"/><path class="a" d="m181.1 275.7h7.5v32.2h-7.5z"/><path class="a" d="m222.4 276.2l7.3-1.3 5.5 31.8-7.4 1.3z"/><path class="a" d="m154.2 280h7.5v28h-7.5z"/><path class="a" d="m171.4 280h7.5v28h-7.5z"/><path class="a" d="m214.9 280h7.5v28h-7.5z"/><path class="a" d="m191.1 280.6l7.4-1.6 6 27.3-7.3 1.7z"/><path class="a" d="m164.4 274.1h3.7v33.8h-3.7z"/><path class="a" d="m209 274.1h3.7v33.8h-3.7z"/><path class="a" d="m136.1 276.2l7.4-1.3 5.5 31.8-7.4 1.3z"/><path class="a" d="m128.6 280h7.5v28h-7.5z"/><path class="a" d="m104.9 280.6l7.3-1.6 6.1 27.3-7.3 1.7z"/><path class="a" d="m122.7 274.1h3.8v33.8h-3.8z"/><path class="c" d="m100.4 382.6h-24.5v-208.7h24.5z"/><path class="d" d="m325.4 377.1h-20.8l11-89.1c0.4-3.7 3.9-6.8 7.6-6.8h7.2 83.6l-13.3 95.9z"/><path class="b" d="m391.4 377.1h20.9l10.9-89.1c0.5-3.7-2.2-6.8-6-6.8h-7.1c-3.8 0-7.3 3.1-7.7 6.8z"/><path class="e" d="m383.8 377l3.7-43.1c0.2-1.9 1.7-3.4 3.6-3.7l1.6-0.2c2.5-0.3 4.5-2.4 4.8-5l0.6-7.8c0.3-3.3-2.2-6-5.4-6h34.7c3.3 0 5.8 2.7 5.5 6l-0.7 7.8c-0.2 2.6-2.2 4.7-4.8 5l-1.5 0.2c-1.9 0.3-3.4 1.8-3.6 3.7l-3.7 43.1c-0.3 3.2-3 5.6-6.1 5.6h-34.8c3.2 0 5.8-2.4 6.1-5.6z"/><path class="e" d="m288.1 323.1c-0.6-6.7-6.3-11.9-13.1-11.9h16.8 13.5c6.8 0 12.4 5.2 13 11.9l3 34.2h-30.3z"/><path class="b" d="m261.6 311.2h13.4c6.8 0 12.5 5.2 13.1 11.9l2.9 34.2h72.2l3-34.2c0.5-6.7 6.2-11.9 13-11.9h13.5c3.2 0 5.7 2.8 5.5 6l-0.7 7.8c-0.3 2.6-2.3 4.7-4.8 5l-1.6 0.2c-1.9 0.3-3.4 1.8-3.6 3.8l-3.7 43.1c-0.3 3.1-2.9 5.5-6.1 5.5h-101.2c-3.2 0-5.8-2.4-6.1-5.5l-3.7-43.1c-0.2-2-1.7-3.5-3.6-3.8l-1.6-0.2c-2.5-0.3-4.5-2.4-4.7-5l-0.7-7.8c-0.3-3.2 2.2-6 5.5-6z"/><path class="e" d="m102.2 163.5c0 0-1.2-7.3 4.2-12 5.3-4.7 4.8-7.5 3.3-7.8-1.5-0.4-2.9 4.3-5.3 5.6 0 0 0-6.7 2.3-9.2 2.4-2.4 3.7-8.8 1.4-8.9-2.3-0.1-2.5 3.8-3 6.5-0.4 2.8-2.9 6.7-2.9 6.7 0 0-0.5-6-2.1-8.5-1.5-2.4 2.6-8.1 1-10.5-1.6-2.5-4.4 2.2-4.2 7.5 0.3 5.3 3.8 10.9 3 16.4 0 0-1.6-3.9-3-4.2-1.4-0.4-2.8-3-3.7-3.9-0.9-0.9-2.1 2.3 0 5.4 2.1 3 7.5 11.2 6.7 17.8z"/><path class="e" d="m105.3 160.2l1.8 10.9c0.5 3.4-2.1 6.4-5.5 6.4h-1.9c-3.4 0-6-3-5.5-6.4l1.8-10.9z"/><path class="a" d="m215.5 175.4h-5.4v-23.4h5.4z"/><path class="a" d="m189.2 175.4h-5.4v-23.4h5.4z"/><path class="a" d="m155.3 175.4l-5.3-0.9 4-23 5.3 0.9z"/><path class="a" d="m208.8 175.4h-5.5v-20.3h5.5z"/><path class="a" d="m196.3 175.4h-5.5v-20.3h5.5z"/><path class="a" d="m164.8 175.4h-5.5v-20.3h5.5z"/><path class="a" d="m177.6 175.4l-5.3-1.2 4.4-19.8 5.3 1.2z"/><path class="a" d="m201.3 175.4h-2.7v-24.5h2.7z"/><path class="a" d="m169 175.4h-2.7v-24.5h2.7z"/><path class="a" d="m120.5 156.9h26.4v18.2h-26.4z"/><path class="a" d="m215.6 164.3h22.1v13.7h-22.1z"/><path class="a" d="m221.5 152.3h11.1v13.7h-11.1z"/><path class="c" d="m391.4 134.3h26.4v109.9h-26.4z"/><path class="c" d="m415 244.5h-98.6v-110.2h98.6z"/><path class="b" d="m415.5 244.5h-102.3v-110.2h102.3z"/><path class="f" d="m411.3 239.4h-93.7v-101.6h93.7z"/><path class="c" d="m319.3 239.4h-1.7v-101.6h1.7z"/><path class="c" d="m319 213.6v-2.7h92.5v2.7z"/><path class="b" d="m412.8 210.9h-95.2v-4.6h95.2z"/><path class="d" d="m250 427.6c-107.2 0-193.9-5.1-193.9-11.4 0-6.2 86.7-11.3 193.9-11.3 107.2 0 193.9 5.1 193.9 11.3 0 6.3-86.7 11.4-193.9 11.4z"/><path class="g" d="m321.9 378.1h-178.9c-4 0-7.3-3.3-7.3-7.3v-210.7c0-4 3.3-7.3 7.3-7.3h179c4 0 7.3 3.3 7.3 7.3v210.7c0 4-3.3 7.3-7.3 7.3z"/><path class="h" d="m321.9 378.1h-178.9c-4 0-7.3-3.3-7.3-7.3v-210.7c0-4 3.3-7.3 7.3-7.3h179c4 0 7.3 3.3 7.3 7.3v210.7c0 4-3.3 7.3-7.3 7.3z"/><path class="f" d="m167.1 256.1h130.8v22.4h-130.8z"/><path class="f" d="m167.1 286.8l130.8-0.1v22.4h-130.8z"/><path class="i" d="m167.1 332h130.8v22.4h-130.8z"/><g style="opacity:.5"><path fill-rule="evenodd" d="m198.9 321.7h-2.1l-0.5 1h-0.4l1.7-3.8h0.4l1.8 3.8h-0.4zm-0.2-0.3l-0.9-2.1-0.9 2.1z"/><path  d="m200.3 318.7h0.4v4h-0.4z"/><path  d="m203.3 319.8v0.4q-0.1 0-0.1 0c-0.6 0-1 0.4-1 1.1v1.4h-0.4v-2.8h0.4v0.5q0.3-0.6 1.1-0.6z"/><path fill-rule="evenodd" d="m206.4 321.4h-2.4c0.1 0.6 0.5 1 1.2 1q0.5 0 0.8-0.4l0.3 0.3c-0.3 0.3-0.7 0.5-1.1 0.5-0.9 0-1.6-0.7-1.6-1.5 0-0.9 0.6-1.5 1.5-1.5 0.8 0 1.4 0.6 1.4 1.5q0 0-0.1 0.1zm-2.4-0.3h2.1c-0.1-0.5-0.5-0.9-1-0.9-0.6 0-1 0.4-1.1 0.9z"/><path fill-rule="evenodd" d="m209.3 320.9v1.8h-0.3v-0.4c-0.2 0.3-0.6 0.5-1 0.5-0.7 0-1.1-0.4-1.1-0.9 0-0.4 0.3-0.8 1.1-0.8h1v-0.2q0-0.7-0.9-0.7c-0.3 0-0.7 0.1-0.9 0.3l-0.2-0.3c0.3-0.2 0.7-0.4 1.2-0.4 0.7 0 1.1 0.4 1.1 1.2zm-0.3 0.9v-0.5h-0.9c-0.6 0-0.8 0.2-0.8 0.5 0 0.3 0.3 0.6 0.7 0.6 0.5 0 0.8-0.3 1-0.6z"/><path fill-rule="evenodd" d="m213 318.7v4h-0.3v-0.5c-0.3 0.4-0.7 0.6-1.1 0.6-0.9 0-1.5-0.6-1.5-1.5 0-0.9 0.6-1.5 1.5-1.5 0.4 0 0.8 0.2 1.1 0.6v-1.7zm-0.4 2.6c0-0.7-0.5-1.1-1.1-1.1-0.6 0-1.1 0.4-1.1 1.1 0 0.7 0.5 1.1 1.1 1.1 0.6 0 1.1-0.4 1.1-1.1z"/><path  d="m216.6 319.9l-1.5 3.2c-0.2 0.5-0.5 0.7-0.9 0.7-0.3 0-0.6-0.1-0.7-0.2l0.1-0.3q0.2 0.2 0.6 0.2c0.2 0 0.4-0.1 0.6-0.5l0.1-0.3-1.3-2.8h0.4l1.1 2.4 1.1-2.4h0.4z"/><path fill-rule="evenodd" d="m220.7 320.9v1.8h-0.4v-0.4c-0.1 0.3-0.5 0.5-0.9 0.5-0.7 0-1.1-0.4-1.1-0.9 0-0.4 0.3-0.8 1.1-0.8h0.9v-0.2q0-0.7-0.8-0.7c-0.4 0-0.7 0.1-1 0.3l-0.1-0.3c0.3-0.2 0.7-0.4 1.1-0.4 0.8 0 1.2 0.4 1.2 1.2zm-0.4 0.9v-0.5h-0.9c-0.5 0-0.7 0.2-0.7 0.5 0 0.3 0.3 0.6 0.7 0.6 0.5 0 0.8-0.3 0.9-0.6z"/><path  d="m228 321.1v1.6h-0.4v-1.6c0-0.6-0.3-0.9-0.9-0.9-0.5 0-0.9 0.4-0.9 1v1.5h-0.4v-1.6c0-0.6-0.3-0.9-0.8-0.9-0.6 0-1 0.4-1 1v1.5h-0.4v-2.8l0.4-0.1v0.6c0.2-0.4 0.6-0.6 1-0.6 0.5 0 0.9 0.2 1.1 0.6 0.2-0.3 0.6-0.6 1.1-0.6 0.7 0 1.2 0.4 1.2 1.3z"/><path fill-rule="evenodd" d="m231.5 321.4h-2.4c0.1 0.6 0.5 1 1.2 1q0.5 0 0.8-0.4l0.3 0.3c-0.3 0.3-0.7 0.5-1.2 0.5-0.9 0-1.5-0.7-1.5-1.5 0-0.9 0.6-1.5 1.4-1.5 0.9 0 1.4 0.6 1.4 1.5q0 0 0 0.1zm-2.4-0.3h2.1c-0.1-0.5-0.5-0.9-1.1-0.9-0.5 0-0.9 0.4-1 0.9z"/><path  d="m237.1 321.1v1.6h-0.4v-1.6c0-0.6-0.3-0.9-0.8-0.9-0.6 0-1 0.4-1 1v1.5h-0.4v-1.6c0-0.6-0.3-0.9-0.8-0.9-0.6 0-1 0.4-1 1v1.5h-0.3v-2.8l0.3-0.1v0.6c0.2-0.4 0.6-0.6 1.1-0.6 0.5 0 0.8 0.2 1 0.6 0.2-0.3 0.6-0.6 1.1-0.6 0.7 0 1.2 0.4 1.2 1.3z"/><path fill-rule="evenodd" d="m241.1 321.3c0 0.9-0.6 1.5-1.4 1.5-0.5 0-0.9-0.2-1.2-0.6v0.5h-0.3v-4h0.4v1.7c0.2-0.4 0.6-0.6 1.1-0.6 0.8 0 1.4 0.6 1.4 1.5zm-0.4 0c0-0.7-0.5-1.1-1.1-1.1-0.6 0-1 0.4-1 1.1 0 0.7 0.4 1.1 1 1.1 0.6 0 1.1-0.4 1.1-1.1z"/><path fill-rule="evenodd" d="m244.4 321.4h-2.4c0 0.6 0.5 1 1.1 1q0.5 0 0.9-0.4l0.2 0.3c-0.3 0.3-0.7 0.5-1.1 0.5-0.9 0-1.5-0.7-1.5-1.5 0-0.9 0.6-1.5 1.4-1.5 0.8 0 1.4 0.6 1.4 1.5q0 0 0 0.1zm-2.4-0.3h2c0-0.5-0.4-0.9-1-0.9-0.6 0-1 0.4-1 0.9z"/><path  d="m246.6 319.8v0.4q0 0-0.1 0c-0.6 0-0.9 0.4-0.9 1.1v1.4h-0.4v-2.8h0.4v0.5q0.2-0.6 1-0.6z"/><path  d="m249.2 319.9c0-0.4-0.4-0.7-0.9-0.7q-0.7 0-1.1 0.4l-0.3-0.2q0.5-0.5 1.4-0.5c0.8 0 1.3 0.3 1.3 0.9 0 0.9-1 1-1 1.8h-0.4c0-0.9 1-1 1-1.7zm-1.1 2.6c0-0.2 0.1-0.3 0.3-0.3 0.1 0 0.3 0.1 0.3 0.3 0 0.1-0.2 0.3-0.3 0.3-0.2 0-0.3-0.2-0.3-0.3z"/><path  d="m251.9 318.9h0.9v3.1h1.9v0.7h-2.8z"/><path fill-rule="evenodd" d="m254.9 321.3c0-0.9 0.7-1.6 1.6-1.6 0.9 0 1.6 0.7 1.6 1.6 0 0.8-0.7 1.5-1.6 1.5-0.9 0-1.6-0.7-1.6-1.5zm2.3 0c0-0.6-0.3-0.9-0.7-0.9-0.4 0-0.8 0.3-0.8 0.9 0 0.5 0.4 0.8 0.8 0.8 0.4 0 0.7-0.3 0.7-0.8z"/><path fill-rule="evenodd" d="m261.7 322.2c0 1.1-0.6 1.6-1.6 1.6-0.6 0-1.1-0.1-1.5-0.4l0.4-0.6c0.2 0.2 0.6 0.3 1 0.3q0.9 0 0.9-0.8v-0.1q-0.4 0.4-0.9 0.4c-0.9 0-1.5-0.6-1.5-1.5 0-0.8 0.6-1.4 1.5-1.4q0.6 0 0.9 0.4v-0.3h0.8zm-0.8-1.1c0-0.4-0.3-0.7-0.8-0.7-0.4 0-0.8 0.3-0.8 0.7 0 0.4 0.4 0.7 0.8 0.7 0.5 0 0.8-0.3 0.8-0.7z"/><path  d="m264 318.9c0-0.3 0.2-0.5 0.5-0.5 0.3 0 0.5 0.2 0.5 0.5 0 0.3-0.2 0.5-0.5 0.5-0.3 0-0.5-0.2-0.5-0.5zm0.1 0.9h0.8v2.9h-0.8z"/><path  d="m268.7 321v1.7h-0.8v-1.5c0-0.5-0.2-0.7-0.6-0.7-0.4 0-0.7 0.2-0.7 0.8v1.4h-0.9v-2.9h0.8v0.3c0.3-0.2 0.6-0.4 1-0.4 0.7 0 1.2 0.4 1.2 1.3z"/></g><path class="g" d="m167.1 330.6h130.8v22.4h-130.8z"/><path fill-rule="evenodd" class="f" d="m215.6 345.3l-1.7-2.4q-0.2 0.1-0.4 0.1h-1.9v2.3h-1.1v-7.7h3c2 0 3.2 1 3.2 2.7 0 1.2-0.7 2-1.7 2.4l1.8 2.6h-1.2zm0-5c0-1.1-0.8-1.7-2.2-1.7h-1.8v3.4h1.8c1.4 0 2.2-0.6 2.2-1.7z"/><path fill-rule="evenodd" class="f" d="m223.5 342.8h-4.7c0.1 1 1 1.7 2.1 1.7q1 0 1.7-0.7l0.6 0.6c-0.6 0.7-1.4 1-2.3 1-1.9 0-3.1-1.3-3.1-3 0-1.7 1.2-3 2.9-3 1.7 0 2.8 1.3 2.8 3 0 0.1 0 0.3 0 0.4zm-4.7-0.8h3.7c-0.1-1-0.8-1.7-1.8-1.7-1 0-1.8 0.7-1.9 1.7z"/><path fill-rule="evenodd" class="f" d="m230.6 339.5v5c0 2.1-1.1 3-3 3-1.1 0-2.2-0.3-2.8-0.9l0.5-0.8c0.5 0.5 1.4 0.8 2.2 0.8 1.4 0 2-0.6 2-2v-0.4c-0.5 0.6-1.3 0.9-2.1 0.9-1.7 0-2.9-1.2-2.9-2.8 0-1.7 1.2-2.8 2.9-2.8 0.9 0 1.7 0.3 2.2 0.9v-0.9zm-1.1 2.8c0-1.2-0.8-1.9-2-1.9-1.1 0-2 0.7-2 1.9 0 1.1 0.9 1.9 2 1.9 1.2-0.1 2-0.8 2-1.9z"/><path class="f" d="m232.4 337.7c0-0.4 0.3-0.7 0.7-0.7 0.4 0 0.7 0.3 0.7 0.7 0 0.4-0.3 0.7-0.7 0.7-0.4 0-0.7-0.3-0.7-0.7zm0.2 1.8h1v5.8h-1z"/><path class="f" d="m234.9 344.7l0.4-0.8c0.5 0.3 1.3 0.6 2.1 0.6 0.9 0 1.3-0.3 1.3-0.8 0-1.3-3.6-0.2-3.6-2.5 0-1.1 0.9-1.8 2.4-1.8 0.8 0.1 1.6 0.2 2.1 0.6l-0.4 0.8c-0.6-0.3-1.2-0.5-1.7-0.5-0.9 0-1.4 0.4-1.4 0.8 0 1.4 3.7 0.3 3.7 2.6 0 1-1 1.7-2.5 1.7-1 0-1.9-0.3-2.4-0.7z"/><path class="f" d="m244.4 345c-0.3 0.2-0.8 0.4-1.3 0.4-1.2 0-1.8-0.7-1.8-1.8v-3.2h-1v-0.9h1v-1.3h1v1.3h1.7v0.9h-1.7v3.1c0 0.6 0.4 1 0.9 1q0.5 0 0.8-0.3z"/><path fill-rule="evenodd" class="f" d="m250.7 342.8h-4.7c0.1 1 0.9 1.7 2.1 1.7q1 0 1.7-0.7l0.5 0.6c-0.5 0.7-1.3 1-2.3 1-1.8 0-3.1-1.3-3.1-3 0-1.7 1.3-3 2.9-3 1.7 0 2.9 1.3 2.9 3 0 0.1 0 0.3 0 0.4zm-4.7-0.8h3.7c-0.1-1-0.8-1.7-1.9-1.7-1 0-1.7 0.7-1.8 1.7z"/><path class="f" d="m255.3 339.4v1.1q-0.1 0-0.3 0c-1.1 0-1.8 0.6-1.8 1.9v2.9h-1v-5.8h1v1q0.5-1 2.1-1z"/><g style="opacity:.6"><path class="j" d="m209.6 177.6l0.4-0.9c0.7 0.5 1.7 0.9 2.8 0.9 1.5 0 2.1-0.5 2.1-1.3 0-2-5.1-0.7-5.1-3.8 0-1.3 1-2.4 3.2-2.4 1 0 2 0.2 2.7 0.7l-0.4 1c-0.7-0.5-1.6-0.7-2.3-0.7-1.4 0-2 0.6-2 1.3 0 2.1 5 0.8 5 3.9 0 1.3-1 2.4-3.2 2.4-1.3 0-2.5-0.5-3.2-1.1z"/><path class="j" d="m217.4 170.2c0-0.4 0.4-0.7 0.8-0.7 0.5 0 0.8 0.3 0.8 0.7 0 0.4-0.3 0.8-0.8 0.8-0.4 0-0.8-0.3-0.8-0.8zm0.2 2h1.2v6.4h-1.2z"/><path fill-rule="evenodd" class="j" d="m227.1 172.2v5.5c0 2.2-1.2 3.3-3.3 3.3-1.2 0-2.4-0.4-3.1-1l0.6-0.9c0.6 0.5 1.5 0.9 2.4 0.9 1.5 0 2.2-0.7 2.2-2.2v-0.5c-0.5 0.7-1.4 1-2.3 1-1.8 0-3.2-1.2-3.2-3.1 0-1.8 1.4-3 3.2-3 1 0 1.8 0.3 2.4 1v-1zm-1.1 3c0-1.2-1-2-2.2-2-1.3 0-2.2 0.8-2.2 2 0 1.2 0.9 2.1 2.2 2.1 1.2 0 2.2-0.9 2.2-2.1z"/><path class="j" d="m235.3 174.9v3.7h-1.1v-3.6c0-1.2-0.7-1.8-1.8-1.8-1.2 0-2 0.7-2 2.1v3.3h-1.1v-6.4h1.1v1c0.4-0.7 1.3-1.1 2.3-1.1 1.5 0.1 2.6 0.9 2.6 2.8z"/><path class="j" d="m246.6 172.2v6.4h-1.1v-1c-0.5 0.7-1.2 1-2.1 1-1.7 0-2.8-0.9-2.8-2.7v-3.7h1.2v3.5c0 1.3 0.6 1.9 1.7 1.9 1.2 0 2-0.7 2-2.1v-3.3z"/><path fill-rule="evenodd" class="j" d="m255.4 175.4c0 1.9-1.4 3.2-3.2 3.2-0.9 0-1.7-0.3-2.3-1v3.3h-1.1v-8.7h1.1v1c0.5-0.7 1.3-1 2.3-1 1.8-0.1 3.2 1.2 3.2 3.2zm-1.2 0c0-1.4-0.9-2.2-2.1-2.2-1.2 0-2.2 0.8-2.2 2.2 0 1.3 1 2.2 2.2 2.2 1.2 0 2.1-0.9 2.1-2.2z"/></g><path class="f" d="m167.1 225.5h130.8v22.4h-130.8z"/><path class="f" d="m167.1 194.9h130.8v22.4h-130.8z"/><path class="k" d="m136.4 345.6c0-0.1-6.6-5.6-12.3-0.1-5.6 5.6-6.7 39.8-6.7 39.8"/><path class="k" d="m116.9 391.9c0 0 3.9-40.2-10.8-57"/><path class="k" d="m118.3 387.6c0 0-3-45.7 8-55.8"/><path class="k" d="m116.9 387.6c0 0-0.3-30.2-8.4-34.9-8.2-4.6-12.4 10.7-12.4 10.7"/><path class="k" d="m120.1 387.6c0 0-1.3-23.1 5.1-31.4 6.3-8.3 13 3.5 13 3.5"/><path class="k" d="m117.9 390.7c0 0 4.1-54.1-2.7-63.3"/><path class="g" d="m101.5 357.1c0 0 4 1.6 2.8 5.1-1.2 3.6-14.1 9.4-14.1 9.4 0 0-5.4-5-0.4-13 4.9-8.1 11.5-4 11.7-1.5z"/><path class="i" d="m101.5 357.1c0 0 4 1.6 2.8 5.1-1.2 3.6-14.1 9.4-14.1 9.4 0 0-5.4-5-0.4-13 4.9-8.1 11.5-4 11.7-1.5z"/><path class="g" d="m119.2 350.4c0 0-4.3-0.2-4.6 3.6-0.2 3.7 9.4 14.1 9.4 14.1 0 0 6.9-2.5 5.4-11.9-1.4-9.3-9.1-8.1-10.2-5.8z"/><path class="i" d="m119.2 350.4c0 0-4.3-0.2-4.6 3.6-0.2 3.7 9.4 14.1 9.4 14.1 0 0 6.9-2.5 5.4-11.9-1.4-9.3-9.1-8.1-10.2-5.8z"/><path class="g" d="m122.9 332.4c0 0.1-2.9-0.3-2.7-2 0.2-1.8 11.3-6.3 17.8 1 0 0-4.2 7.2-10.2 7.3-6 0.1-4.9-6.2-4.9-6.2z"/><path class="i" d="m122.9 332.4c0 0.1-2.9-0.3-2.7-2 0.2-1.8 11.3-6.3 17.8 1 0 0-4.2 7.2-10.2 7.3-6 0.1-4.9-6.2-4.9-6.2z"/><path class="g" d="m117.5 328.2c0 0 2.6 1.2 3.3-0.4 0.8-1.6-6.2-11.3-15.6-8.5 0 0-0.2 8.3 4.8 11.5 5.1 3.3 7.5-2.6 7.5-2.6z"/><path class="i" d="m117.5 328.2c0 0 2.6 1.2 3.3-0.4 0.8-1.6-6.2-11.3-15.6-8.5 0 0-0.2 8.3 4.8 11.5 5.1 3.3 7.5-2.6 7.5-2.6z"/><path class="g" d="m131.2 355.7c0 0-2-1.6 0.2-2.4 2.1-0.8 12.7-0.5 12.8 10 0 0-12.3 2-13.9-2-1.5-4 0.9-5.6 0.9-5.6z"/><path class="i" d="m131.2 355.7c0 0-2-1.6 0.2-2.4 2.1-0.8 12.7-0.5 12.8 10 0 0-12.3 2-13.9-2-1.5-4 0.9-5.6 0.9-5.6z"/><path class="g" d="m106 332.2c0 0 2-1.6-0.1-2.4-2.2-0.8-12.8-0.6-12.9 9.9 0 0 12.4 2.1 13.9-1.9 1.5-4-0.9-5.6-0.9-5.6z"/><path class="i" d="m106 332.2c0 0 2-1.6-0.1-2.4-2.2-0.8-12.8-0.6-12.9 9.9 0 0 12.4 2.1 13.9-1.9 1.5-4-0.9-5.6-0.9-5.6z"/><path class="g" d="m112.6 340.6c0 0 0.1-1.9-1.4-1.2-1.6 0.8-7.2 6.8-1.4 12.4 0 0 7.7-5.7 6.3-8.7-1.4-2.9-3.5-2.5-3.5-2.5z"/><path class="i" d="m112.6 340.6c0 0 0.1-1.9-1.4-1.2-1.6 0.8-7.2 6.8-1.4 12.4 0 0 7.7-5.7 6.3-8.7-1.4-2.9-3.5-2.5-3.5-2.5z"/><path class="g" d="m133 343.4c0 0-1.2-1.5 0.6-1.7 1.7-0.2 9.6 1.9 7.7 9.7 0 0-9.5-0.7-9.9-3.9-0.5-3.3 1.6-4.1 1.6-4.1z"/><path class="i" d="m133 343.4c0 0-1.2-1.5 0.6-1.7 1.7-0.2 9.6 1.9 7.7 9.7 0 0-9.5-0.7-9.9-3.9-0.5-3.3 1.6-4.1 1.6-4.1z"/><path class="j" d="m102.2 416.7h30.9l4.1-30h-39.2z"/><path class="l" d="m102.2 416.7h30.9l4.1-30h-39.2z"/><path class="j" d="m141.1 384.2v2.9c0 1.9-1.6 3.4-3.5 3.4h-40.3c-2 0-3.5-1.5-3.5-3.4v-2.9z"/><path class="g" d="m398.6 99.3h-28.7c-4.9 0-8.9 4-8.9 8.9v25c0 4.8 4 8.8 8.9 8.8h8.4l-2.1 7.9 8-7.9h14.4c4.9 0 8.9-4 8.9-8.8v-25c0-4.9-4-8.9-8.9-8.9z"/><path class="m" d="m398.6 99.3h-28.7c-4.9 0-8.9 4-8.9 8.9v25c0 4.8 4 8.8 8.9 8.8h8.4l-2.1 7.9 8-7.9h14.4c4.9 0 8.9-4 8.9-8.8v-25c0-4.9-4-8.9-8.9-8.9z"/><path class="g" d="m394.3 130.6c-5.5 5.6-14.5 5.6-20.1 0-5.6-5.5-5.6-14.6 0-20.1 5.6-5.6 14.6-5.6 20.1 0 5.6 5.5 5.6 14.6 0 20.1z"/><path class="f" d="m382.8 126.9c-0.4 0-0.8-0.2-1-0.5l-5.6-6.5c-0.5-0.6-0.4-1.4 0.1-1.9 0.6-0.5 1.4-0.4 1.9 0.2l4.6 5.4 7.6-9c0.4-0.5 1.3-0.6 1.8-0.1 0.6 0.4 0.6 1.3 0.2 1.8l-8.6 10.1c-0.3 0.3-0.7 0.5-1 0.5z"/><path class="g" d="m393.6 253.6c0 0-17.4-2.2-43.8 5 0 0-4.2-47.1-3.7-53.6 0.5-6.5 40.7-4.6 40.7-4.6 0 0 1.1 18.9 3.7 30.3 2.5 11.3 4.5 20.7 3.1 22.9z"/><path class="i" d="m393.6 253.6c0 0-17.4-2.2-43.8 5 0 0-4.2-47.1-3.7-53.6 0.5-6.5 40.7-4.6 40.7-4.6 0 0 1.1 18.9 3.7 30.3 2.5 11.3 4.5 20.7 3.1 22.9z"/><path class="n" d="m337.1 409.6l7.1 2 1.7-11 0.9-5.9-7.1-2-1.2 7.9z"/><path class="n" d="m377.9 410.2l7.4 1v-10.6l0.1-6.6-7.3-1-0.1 7.6z"/><path class="i" d="m378.1 393l-0.1 7.6h7.3l0.1-6.6z"/><path class="i" d="m338.5 400.6h7.4l0.9-5.9-7.1-2z"/><path class="n" d="m305.6 208.8l-7-2.1 1.3 8.1c-0.1 0 6.3 1.5 7-1.9z"/><path class="n" d="m291.5 208.6l3.5 6.5 4.9-0.3-1.3-8.1z"/><path class="n" d="m315.3 210.9l-11.5-2.6-1.1 5.6 10.5 2.6z"/><path class="g" d="m350.4 205.8c0 0-0.3 0.3-0.7 0.8-1.5 1.7-5 5.8-8.7 9.4-3 2.9-6 5.4-8 5.9-5.7 1.5-26.3-4.6-26.3-4.6l2.1-8.3c0 0 19.2 2.5 20.7 2.5 1.2 0 12.8-16.9 15.7-18.3z"/><path class="i" d="m349.7 206.6c-1.5 1.7-5 5.8-8.7 9.4 0.7-5.9 2.9-11.2 5.7-14.6q0.5-0.6 0.9-0.9z"/><path class="j" d="m337.2 408.5l8.1-0.2c0.3 0 0.6 0.2 0.6 0.5l1.7 6.5c0.2 0.6-0.3 1.3-1 1.3-2.9 0-7.1 0-10.8 0.1-4.2 0.1-7-0.1-12 0-3 0.1-4-2.9-2.7-3.3 5.7-1.4 9.5-1.1 14.4-4.3 0.5-0.3 1.1-0.6 1.7-0.6z"/><path fill-rule="evenodd" class="g" d="m336.5 409.6q0 0 0 0c-1.2 0.2-3.3 0.6-4.1-0.1q-0.4-0.3-0.4-0.9 0-0.3 0.3-0.4c0.9-0.6 3.9 0.9 4.2 1q0.1 0.1 0.1 0.2 0 0.1-0.1 0.1zm-4-1.1q0 0.1 0 0.1-0.1 0-0.1 0.2 0 0.3 0.2 0.5c0.5 0.4 1.7 0.4 3.3 0.1-1.2-0.5-2.8-1.1-3.4-0.9z"/><path fill-rule="evenodd" class="g" d="m336.5 409.6q0 0-0.1-0.1c-0.9-0.3-2.7-1.9-2.6-2.7 0-0.2 0.1-0.4 0.6-0.5q0.5-0.1 1 0.3c1 0.7 1.2 2.7 1.2 2.8q0 0.1 0 0.1 0 0-0.1 0zm-2.2-2.8c-0.2 0-0.2 0.1-0.2 0.1 0 0.5 1.2 1.8 2.1 2.3-0.1-0.6-0.4-1.8-1-2.3q-0.4-0.2-0.8-0.2-0.1 0.1-0.1 0.1z"/><path class="j" d="m378.2 408.5l8.1-0.2c0.3 0 0.6 0.2 0.7 0.5l1.6 6.5c0.2 0.6-0.3 1.3-1 1.3-2.9 0-7.1 0-10.8 0.1-4.2 0.1-6.9-0.1-12 0-3 0.1-3.9-2.9-2.7-3.3 5.7-1.4 9.5-1.1 14.4-4.3 0.5-0.3 1.1-0.6 1.7-0.6z"/><path fill-rule="evenodd" class="o" d="m377.6 409.6q-0.1 0-0.1 0c-1.1 0.2-3.3 0.6-4.1-0.1q-0.4-0.3-0.4-0.9 0.1-0.3 0.3-0.4c0.9-0.6 3.9 0.9 4.3 1q0.1 0.1 0.1 0.2-0.1 0.1-0.2 0.1zm-3.9-1.1q-0.1 0.1-0.1 0.1-0.1 0-0.1 0.2 0 0.3 0.2 0.5c0.5 0.4 1.7 0.4 3.3 0.1-1.2-0.5-2.8-1.1-3.3-0.9z"/><path fill-rule="evenodd" class="o" d="m377.6 409.6q-0.1 0-0.2-0.1c-0.9-0.3-2.7-1.9-2.6-2.7 0-0.2 0.2-0.4 0.6-0.5q0.6-0.1 1 0.3c1 0.7 1.3 2.7 1.3 2.8q0 0.1-0.1 0.1 0 0-0.1 0zm-2.2-2.8c-0.1 0-0.1 0.1-0.2 0.1 0 0.5 1.2 1.8 2.1 2.3-0.1-0.6-0.4-1.8-1-2.3q-0.3-0.2-0.7-0.2-0.1 0.1-0.2 0.1z"/><path class="j" d="m393.1 249.3c3.8 16.8-2.8 149-2.8 149h-12.9l-5.5-110.2-20.2 110.2-13.8-1c9-85.3 16.9-136.3 16.9-136.3v-6.5z"/><path class="p" d="m337.9 397.3l13.8 1 15.9-86.7 4.3-23.5 5.5 110.2h12.9c0 0 6.6-132.2 2.8-149l-38.3 5.2v6.5c0 0-7.9 50.9-16.9 136.3z"/><path class="j" d="m386.1 187c-0.4 8.2-0.1 16.4 0.6 24.1 0.6 5.6 1.3 10.9 2.1 15.6 1.9 11.2 3.9 19.6 4.2 22.6-5.6 0.7-26.7 3.6-38.2 5.2-13.9-38.9-8.7-61.6-8.7-61.6 0 0 4-1.7 8.8-3q0.9-0.3 1.9-0.5c4.3-1 11.4-1.8 16.3-2.2 1-0.1 2.1-0.2 3.1-0.3 5.2-0.2 9.9 0.1 9.9 0.1z"/><path class="n" d="m365.7 169.4c0.2 5.4 0.8 15.4 5.3 18 0 0-2.8 5.3-8.8 5.8-4.5 0.4-4.2-4.1-4.2-4.1 2.6-1.9 2-5.2 0-9z"/><path class="i" d="m362.5 173.8l-4.5 6.3c0.4 0.9 0.9 1.8 1.2 2.7 2.1-0.8 4.5-3.9 4.1-6.3-0.1-1.1-0.5-2.2-0.8-2.7z"/><path class="j" d="m346.2 158.7c-0.9 2.8-0.4 8.5 3.4 6.6 3.9-1.9-1.9-11.4-3.4-6.6z"/><path class="n" d="m366.2 162.4c0.4 7.2 1 11.3-2.1 15.4-4.8 6-13.9 3.8-16.5-3.1-2.3-6.2-2.6-16.8 4-20.4 6.5-3.6 14.1 1 14.6 8.1z"/><path class="j" d="m361.2 158.6v-8c0 0 8.4-0.6 8.1 3.7 4.7 2.3 2.4 9.6-3.9 13.2-3.4-2.7-3-9.4-3-9.4q-0.6 0.2-1.2 0.5z"/><path class="n" d="m369.6 168c-0.3 1.9-1.5 3.4-2.8 4.3-2 1.3-3.8-0.3-3.8-2.5-0.1-2.1 0.9-5.2 3.1-5.6 2.3-0.4 3.9 1.6 3.5 3.8z"/><path class="j" d="m355.6 165.6c0.1 0.6-0.2 1.1-0.5 1.1-0.4 0.1-0.8-0.3-0.8-0.9-0.1-0.6 0.1-1.1 0.5-1.1 0.4-0.1 0.8 0.3 0.8 0.9z"/><path class="j" d="m349.1 166.3c0.1 0.6-0.2 1.1-0.6 1.2-0.4 0-0.7-0.4-0.8-1-0.1-0.6 0.2-1.1 0.6-1.1 0.3-0.1 0.7 0.4 0.8 0.9z"/><path class="q" d="m351.2 166.4c0 0-1 3.3-2.2 5.1 1.1 0.8 2.8 0.1 2.8 0.1z"/><path class="j" d="m355.1 173.5q-0.3 0.1-0.7 0.1c-0.1 0-0.2 0-0.2-0.1 0-0.1 0.1-0.2 0.2-0.2 2.5-0.3 3.5-2.2 3.5-2.2 0-0.1 0.1-0.1 0.2-0.1 0.1 0 0.1 0.1 0.1 0.2-0.1 0.1-0.9 1.7-3.1 2.3z"/><path class="j" d="m357.4 163.3q-0.2 0-0.3-0.1c-1.1-1.1-2.3-0.9-2.3-0.9-0.2 0-0.4-0.1-0.4-0.3-0.1-0.2 0-0.3 0.2-0.4 0.1 0 1.6-0.3 3 1.1 0.1 0.2 0.1 0.4 0 0.5q-0.1 0.1-0.2 0.1z"/><path class="j" d="m346 164.4q-0.1 0-0.2 0c-0.2-0.1-0.3-0.3-0.2-0.4 0.6-1.8 2.1-2.2 2.2-2.2 0.2-0.1 0.4 0.1 0.4 0.2 0.1 0.2 0 0.4-0.2 0.4-0.1 0.1-1.3 0.4-1.8 1.8q0 0.2-0.2 0.2z"/><path class="j" d="m364.9 161.5c0 0-4.9-1.8-7.3-4.7 0 0-4.5 1.2-5.4 3 0 0-1.6-1.3-0.4-3 0 0-3.4 0.7-4.1 3 0 0-1.7-0.5-1.6-3 0 0-1.5 0.6-2 3 0 0-3.7-7.8 8.7-10 0 0-1-0.4-2.9-0.5 0 0 8.6-3.5 15.5-0.3 6.8 3.2 5.6 9.3-0.5 12.5z"/><path class="g" d="m396 256l-12 1.6c0 0-4.9-34.6-7.1-45.8v-23.8l6.2-1.7 4.9 1.7c1.1 3.8 2.2 8.9 3 14.6 0.6 3.7 1.2 7.7 1.6 11.7 0.7 5.6 1.2 11.2 1.7 16.4 0.7 8.5 1.2 16.1 1.4 20.6 0.2 3 0.3 4.7 0.3 4.7z"/><path class="g" d="m376.9 211.8c0 0 1-16.8 6.3-25.5 0 0-0.2-2.5-1.2-2.9-1.1-0.4-5.1 2-5.1 2 0 0-2.5-1.7-3.1-0.9-0.5 0.8-1.9 6.1 3.1 27.3z"/><path class="m" d="m376.9 211.8c0 0 1-16.8 6.3-25.5 0 0-0.2-2.5-1.2-2.9-1.1-0.4-5.1 2-5.1 2 0 0-2.5-1.7-3.1-0.9-0.5 0.8-1.9 6.1 3.1 27.3z"/><path class="g" d="m349.6 260.6l1.4 1c0 0-2-11.2-1.2-39.3q0.1-2.1 0.1-4c1-23.8 4.8-28.2 5-28.4l-3.5 1.2-6.2 2.1c-1.9 20.4 4.4 67.4 4.4 67.4z"/><path class="o" d="m350.1 214.2c0 0-3.4-16.3-2.4-22 1-5.6 4.7-3.1 4.7-3.1 0 0 3.4-2.7 4.4 0.3 0 0-4.6 3.3-6.7 24.8z"/><path class="r" d="m350.1 214.2c0 0-3.4-16.3-2.4-22 1-5.6 4.7-3.1 4.7-3.1 0 0 3.4-2.7 4.4 0.3 0 0-4.6 3.3-6.7 24.8z"/><path class="i" d="m392.6 214.3c-5.1-2.8-5.8-10.3-5.8-10.3 0.3-0.1 2.2-0.8 4.2-1.4 0.6 3.7 1.2 7.7 1.6 11.7z"/><path class="i" d="m367.6 311.6l4.3-23.5-0.8-12.4c0 0-5.9 21.5-3.5 35.9z"/><path class="i" d="m395.8 251.3c-3.3-0.2-6.1-0.4-6.1-0.4l-0.6-13.1c0 0 1.1-0.9 3.4-0.6 0 0 1-2.6 1.8-6.5 0.7 8.5 1.2 16.1 1.4 20.6z"/><path class="n" d="m396.9 230.7l-6.3 10.1 4.9 2.9 5.9-9.1z"/><path class="g" d="m387.7 187.8c4.3 0.5 22.2 25.1 23 32.5 0.8 7.5-10.6 20.3-10.6 20.3l-7.5-4.5c0 0 7.7-11.8 8-14.9 0.4-3.2-14-16.1-14-16.1 0 0-1.6-3.8-1.8-9.3-0.2-5.4 2.9-8 2.9-8z"/><path class="g" d="m389.1 237.8c0 0 6.5 1.4 9.1 5.5 0 0-2.7 8.4-4.6 9.3-2 1-6.8 1-6.8 1 0 0-0.3-9.4 2.3-15.8z"/></svg>